<svg width="184" height="29" viewBox="0 0 184 29" fill="none" xmlns="http://www.w3.org/2000/svg">
<path d="M55.6152 11.4439C55.6152 12.2332 55.4339 12.8839 55.0712 13.3959C54.7085 13.9079 54.2125 14.2865 53.5832 14.5319C52.9539 14.7772 52.2232 14.8999 51.3912 14.8999H48.6712C48.5752 14.8999 48.5272 14.9479 48.5272 15.0439V19.6199C48.5272 19.7799 48.4472 19.8599 48.2872 19.8599H47.1992C47.1245 19.8599 47.0712 19.8439 47.0392 19.8119C47.0072 19.7799 46.9912 19.7265 46.9912 19.6519V8.21186C46.9912 8.06253 47.0552 7.98786 47.1832 7.98786H51.2152C52.0579 7.98786 52.8099 8.1052 53.4712 8.33986C54.1325 8.57453 54.6552 8.94786 55.0392 9.45986C55.4232 9.97186 55.6152 10.6332 55.6152 11.4439ZM54.0472 11.3959C54.0472 10.8519 53.9245 10.4145 53.6792 10.0839C53.4445 9.7532 53.1085 9.51853 52.6712 9.37986C52.2445 9.23053 51.7325 9.15586 51.1352 9.15586H48.7352C48.5965 9.15586 48.5272 9.21986 48.5272 9.34786V13.5079C48.5272 13.6572 48.5752 13.7319 48.6712 13.7319H51.2472C52.0899 13.7319 52.7672 13.5452 53.2792 13.1719C53.7912 12.7985 54.0472 12.2065 54.0472 11.3959ZM55.913 19.8599C55.849 19.8599 55.801 19.8385 55.769 19.7959C55.7476 19.7425 55.7476 19.6732 55.769 19.5879L59.913 8.21186C59.945 8.1372 59.9823 8.08386 60.025 8.05186C60.0676 8.0092 60.137 7.98786 60.233 7.98786H61.481C61.673 7.98786 61.7956 8.06786 61.849 8.22786L65.945 19.5879C65.9663 19.6519 65.961 19.7159 65.929 19.7799C65.9076 19.8332 65.8596 19.8599 65.785 19.8599H64.649C64.521 19.8599 64.4356 19.8065 64.393 19.6999L63.289 16.5959C63.2676 16.5532 63.2463 16.5212 63.225 16.4999C63.2036 16.4785 63.161 16.4679 63.097 16.4679H58.441C58.345 16.4679 58.281 16.5105 58.249 16.5959L57.113 19.7159C57.1023 19.7585 57.0756 19.7959 57.033 19.8279C57.001 19.8492 56.9476 19.8599 56.873 19.8599H55.913ZM62.681 15.2519C62.809 15.2519 62.8516 15.1825 62.809 15.0439L60.889 9.77986C60.8463 9.68386 60.8036 9.63586 60.761 9.63586C60.729 9.63586 60.697 9.68386 60.665 9.77986L58.713 15.0759C58.6596 15.1932 58.6916 15.2519 58.809 15.2519H62.681ZM65.6425 8.16386C65.6425 8.11053 65.6531 8.06786 65.6745 8.03586C65.7065 8.00386 65.7598 7.98786 65.8345 7.98786H74.4425C74.5065 7.98786 74.5545 8.00386 74.5865 8.03586C74.6185 8.06786 74.6345 8.11053 74.6345 8.16386V8.99586C74.6345 9.10253 74.5705 9.15586 74.4425 9.15586H71.1945C71.0771 9.15586 71.0185 9.2092 71.0185 9.31586V19.6519C71.0185 19.7905 70.9545 19.8599 70.8265 19.8599H69.6745C69.5465 19.8599 69.4825 19.7905 69.4825 19.6519V9.33186C69.4825 9.21453 69.4291 9.15586 69.3225 9.15586H65.8345C65.7065 9.15586 65.6425 9.10253 65.6425 8.99586V8.16386ZM85.315 19.5559C85.347 19.6305 85.3416 19.6999 85.299 19.7639C85.267 19.8279 85.2136 19.8599 85.139 19.8599H83.971C83.8536 19.8599 83.7683 19.7959 83.715 19.6679L81.651 14.6279C81.5976 14.5105 81.4696 14.4519 81.267 14.4519H78.563C78.4883 14.4519 78.435 14.4679 78.403 14.4999C78.3816 14.5319 78.371 14.5745 78.371 14.6279V19.6039C78.371 19.7745 78.2803 19.8599 78.099 19.8599H77.059C76.9736 19.8599 76.915 19.8439 76.883 19.8119C76.851 19.7692 76.835 19.7159 76.835 19.6519V8.21186C76.835 8.06253 76.899 7.98786 77.027 7.98786H81.491C82.7496 7.98786 83.7256 8.2492 84.419 8.77186C85.123 9.28386 85.475 10.0465 85.475 11.0599C85.475 11.6679 85.3576 12.1852 85.123 12.6119C84.8883 13.0279 84.5896 13.3639 84.227 13.6199C83.875 13.8652 83.5123 14.0465 83.139 14.1639C83.0536 14.1745 83.0323 14.2279 83.075 14.3239L85.315 19.5559ZM81.043 13.3319C81.9816 13.3319 82.6856 13.1612 83.155 12.8199C83.635 12.4785 83.875 11.9399 83.875 11.2039C83.875 10.4892 83.6616 9.9612 83.235 9.61986C82.819 9.27853 82.211 9.10786 81.411 9.10786H78.595C78.4456 9.10786 78.371 9.16653 78.371 9.28386V13.1239C78.371 13.2625 78.419 13.3319 78.515 13.3319H81.043ZM89.3196 7.98786C89.4476 7.98786 89.5116 8.0572 89.5116 8.19586V19.5879C89.5116 19.6945 89.4903 19.7692 89.4476 19.8119C89.4049 19.8439 89.3303 19.8599 89.2236 19.8599H88.2156C88.1196 19.8599 88.0556 19.8439 88.0236 19.8119C87.9916 19.7799 87.9756 19.7212 87.9756 19.6359V8.21186C87.9756 8.06253 88.0396 7.98786 88.1676 7.98786H89.3196ZM97.1122 7.82786C97.6455 7.82786 98.1575 7.91853 98.6482 8.09986C99.1495 8.27053 99.5975 8.5052 99.9922 8.80386C100.387 9.10253 100.712 9.4492 100.968 9.84386C101.224 10.2385 101.384 10.6599 101.448 11.1079C101.47 11.2039 101.47 11.2679 101.448 11.2999C101.438 11.3319 101.4 11.3479 101.336 11.3479L100.136 11.4439C100.083 11.4545 100.046 11.4439 100.024 11.4119C100.003 11.3799 99.9869 11.3372 99.9762 11.2839C99.8269 10.6012 99.5015 10.0519 99.0002 9.63586C98.5095 9.2092 97.8962 8.99586 97.1602 8.99586C96.0509 8.99586 95.1975 9.40653 94.6002 10.2279C94.0029 11.0492 93.7042 12.2865 93.7042 13.9399C93.7042 15.5399 93.9975 16.7505 94.5842 17.5719C95.1709 18.3932 96.0562 18.8039 97.2402 18.8039C97.9975 18.8039 98.6269 18.6225 99.1282 18.2599C99.6402 17.8972 100.051 17.3159 100.36 16.5159C100.392 16.4519 100.456 16.4305 100.552 16.4519L101.496 16.6759C101.528 16.6865 101.555 16.7079 101.576 16.7399C101.598 16.7719 101.598 16.8252 101.576 16.8999C101.491 17.2092 101.358 17.5132 101.176 17.8119C101.006 18.1105 100.792 18.3932 100.536 18.6599C100.28 18.9159 99.9815 19.1505 99.6402 19.3639C99.2989 19.5665 98.9202 19.7265 98.5042 19.8439C98.0989 19.9612 97.6562 20.0199 97.1762 20.0199C96.1202 20.0199 95.2082 19.7745 94.4402 19.2839C93.6829 18.7932 93.1015 18.0892 92.6962 17.1719C92.3015 16.2545 92.1042 15.1665 92.1042 13.9079C92.1042 12.6492 92.3015 11.5665 92.6962 10.6599C93.1015 9.74253 93.6775 9.04386 94.4242 8.56386C95.1815 8.0732 96.0775 7.82786 97.1122 7.82786ZM112.889 19.6359C112.921 19.6999 112.926 19.7532 112.905 19.7959C112.894 19.8385 112.857 19.8599 112.793 19.8599H111.481C111.331 19.8599 111.235 19.8119 111.193 19.7159L107.657 13.8119C107.593 13.7159 107.513 13.7212 107.417 13.8279L105.577 15.9239C105.502 16.0092 105.465 16.1052 105.465 16.2119V19.6199C105.465 19.7799 105.374 19.8599 105.193 19.8599H104.169C104.083 19.8599 104.019 19.8439 103.977 19.8119C103.945 19.7799 103.929 19.7265 103.929 19.6519V8.17986C103.929 8.05186 103.987 7.98786 104.105 7.98786H105.289C105.406 7.98786 105.465 8.05186 105.465 8.17986V14.0519C105.465 14.1159 105.475 14.1532 105.497 14.1639C105.518 14.1639 105.555 14.1372 105.609 14.0839L110.857 8.13186C110.899 8.07853 110.942 8.0412 110.985 8.01986C111.027 7.99853 111.091 7.98786 111.177 7.98786H112.281C112.377 7.98786 112.435 8.01453 112.457 8.06786C112.478 8.11053 112.462 8.15853 112.409 8.21186L108.681 12.3719C108.638 12.4359 108.638 12.5052 108.681 12.5799L112.889 19.6359ZM127.529 19.6359C127.561 19.6999 127.567 19.7532 127.545 19.7959C127.535 19.8385 127.497 19.8599 127.433 19.8599H126.121C125.972 19.8599 125.876 19.8119 125.833 19.7159L122.297 13.8119C122.233 13.7159 122.153 13.7212 122.057 13.8279L120.217 15.9239C120.143 16.0092 120.105 16.1052 120.105 16.2119V19.6199C120.105 19.7799 120.015 19.8599 119.833 19.8599H118.809C118.724 19.8599 118.66 19.8439 118.617 19.8119C118.585 19.7799 118.569 19.7265 118.569 19.6519V8.17986C118.569 8.05186 118.628 7.98786 118.745 7.98786H119.929C120.047 7.98786 120.105 8.05186 120.105 8.17986V14.0519C120.105 14.1159 120.116 14.1532 120.137 14.1639C120.159 14.1639 120.196 14.1372 120.249 14.0839L125.497 8.13186C125.54 8.07853 125.583 8.0412 125.625 8.01986C125.668 7.99853 125.732 7.98786 125.817 7.98786H126.921C127.017 7.98786 127.076 8.01453 127.097 8.06786C127.119 8.11053 127.103 8.15853 127.049 8.21186L123.321 12.3719C123.279 12.4359 123.279 12.5052 123.321 12.5799L127.529 19.6359ZM137.829 15.9079C137.829 16.8572 137.663 17.6359 137.333 18.2439C137.013 18.8519 136.533 19.2999 135.893 19.5879C135.253 19.8759 134.474 20.0199 133.557 20.0199C132.554 20.0199 131.738 19.8599 131.109 19.5399C130.479 19.2199 130.015 18.7345 129.717 18.0839C129.418 17.4332 129.269 16.6172 129.269 15.6359V8.21186C129.269 8.06253 129.333 7.98786 129.461 7.98786H130.613C130.741 7.98786 130.805 8.0572 130.805 8.19586V15.9719C130.805 16.9425 131.045 17.6625 131.525 18.1319C132.005 18.6012 132.714 18.8359 133.653 18.8359C134.271 18.8359 134.794 18.7345 135.221 18.5319C135.658 18.3185 135.983 17.9985 136.197 17.5719C136.421 17.1452 136.533 16.5959 136.533 15.9239V8.19586C136.533 8.0572 136.591 7.98786 136.709 7.98786H137.653C137.77 7.98786 137.829 8.05186 137.829 8.17986V15.9079ZM133.173 6.11586C133.173 6.21186 133.151 6.27586 133.109 6.30786C133.077 6.33986 133.007 6.35586 132.901 6.35586H132.053C131.967 6.35586 131.909 6.33986 131.877 6.30786C131.845 6.27586 131.829 6.22253 131.829 6.14786V4.80386C131.829 4.6652 131.887 4.59586 132.005 4.59586H132.997C133.114 4.59586 133.173 4.65986 133.173 4.78786V6.11586ZM135.509 6.11586C135.509 6.21186 135.487 6.27586 135.445 6.30786C135.413 6.33986 135.343 6.35586 135.237 6.35586H134.405C134.309 6.35586 134.245 6.33986 134.213 6.30786C134.191 6.27586 134.181 6.22253 134.181 6.14786V4.80386C134.181 4.6652 134.239 4.59586 134.357 4.59586H135.333C135.45 4.59586 135.509 4.65986 135.509 4.78786V6.11586ZM142.436 14.3079C142.351 14.3079 142.308 14.3505 142.308 14.4359V19.6199C142.308 19.7799 142.218 19.8599 142.036 19.8599H140.996C140.911 19.8599 140.852 19.8439 140.82 19.8119C140.788 19.7692 140.772 19.7105 140.772 19.6359V8.21186C140.772 8.06253 140.836 7.98786 140.964 7.98786H142.116C142.244 7.98786 142.308 8.0572 142.308 8.19586V12.8999C142.308 13.0279 142.367 13.0919 142.484 13.0919H147.732C147.839 13.0919 147.892 13.0279 147.892 12.8999V8.17986C147.892 8.05186 147.951 7.98786 148.068 7.98786H149.236C149.364 7.98786 149.428 8.06253 149.428 8.21186V19.6359C149.428 19.7105 149.412 19.7692 149.38 19.8119C149.348 19.8439 149.29 19.8599 149.204 19.8599H148.164C147.983 19.8599 147.892 19.7799 147.892 19.6199V14.4519C147.892 14.3559 147.844 14.3079 147.748 14.3079H142.436ZM161.37 7.98786C161.487 7.98786 161.546 8.05186 161.546 8.17986V19.6679C161.546 19.7319 161.525 19.7799 161.482 19.8119C161.45 19.8439 161.402 19.8599 161.338 19.8599H160.554C160.49 19.8599 160.431 19.8545 160.378 19.8439C160.325 19.8332 160.271 19.7959 160.218 19.7319L154.042 10.7559C153.989 10.6812 153.946 10.6492 153.914 10.6599C153.882 10.6705 153.866 10.7079 153.866 10.7719V19.6519C153.866 19.7905 153.791 19.8599 153.642 19.8599H152.746C152.607 19.8599 152.538 19.7905 152.538 19.6519V8.21186C152.538 8.06253 152.607 7.98786 152.746 7.98786H153.658C153.743 7.98786 153.807 7.99853 153.85 8.01986C153.893 8.03053 153.941 8.0732 153.994 8.14786L159.994 16.9319C160.058 17.0065 160.111 17.0332 160.154 17.0119C160.207 16.9905 160.234 16.9479 160.234 16.8839V8.17986C160.234 8.05186 160.298 7.98786 160.426 7.98786H161.37ZM164.647 8.21186C164.647 8.06253 164.711 7.98786 164.839 7.98786H172.023C172.13 7.98786 172.183 8.04653 172.183 8.16386V8.97986C172.183 9.10786 172.114 9.17186 171.975 9.17186H166.391C166.253 9.17186 166.183 9.23586 166.183 9.36386V13.1079C166.183 13.2252 166.242 13.2839 166.359 13.2839H170.503C170.621 13.2839 170.679 13.3425 170.679 13.4599V14.3079C170.679 14.3505 170.669 14.3879 170.647 14.4199C170.626 14.4412 170.578 14.4519 170.503 14.4519H166.359C166.242 14.4519 166.183 14.5105 166.183 14.6279V18.5159C166.183 18.6225 166.237 18.6759 166.343 18.6759H172.215C172.333 18.6759 172.391 18.7292 172.391 18.8359V19.6839C172.391 19.7372 172.375 19.7799 172.343 19.8119C172.322 19.8439 172.279 19.8599 172.215 19.8599H164.871C164.722 19.8599 164.647 19.7852 164.647 19.6359V8.21186ZM183.526 7.98786C183.644 7.98786 183.702 8.05186 183.702 8.17986V19.6679C183.702 19.7319 183.681 19.7799 183.638 19.8119C183.606 19.8439 183.558 19.8599 183.494 19.8599H182.71C182.646 19.8599 182.588 19.8545 182.534 19.8439C182.481 19.8332 182.428 19.7959 182.374 19.7319L176.198 10.7559C176.145 10.6812 176.102 10.6492 176.07 10.6599C176.038 10.6705 176.022 10.7079 176.022 10.7719V19.6519C176.022 19.7905 175.948 19.8599 175.798 19.8599H174.902C174.764 19.8599 174.694 19.7905 174.694 19.6519V8.21186C174.694 8.06253 174.764 7.98786 174.902 7.98786H175.814C175.9 7.98786 175.964 7.99853 176.006 8.01986C176.049 8.03053 176.097 8.0732 176.15 8.14786L182.15 16.9319C182.214 17.0065 182.268 17.0332 182.31 17.0119C182.364 16.9905 182.39 16.9479 182.39 16.8839V8.17986C182.39 8.05186 182.454 7.98786 182.582 7.98786H183.526Z" fill="#F5F5F5"/>
<path d="M33.8306 26.9721L21.0507 14.3083L27.3245 8.03446L33.8306 1.41211M1.99689 26.6235V14.1921H12.5694C12.5694 14.1921 19.3079 14.0759 19.0756 7.8021C18.8432 1.52829 12.5694 1.52829 12.5694 1.52829H1.2998" stroke="white" strokeWidth="1.85891" stroke-linecap="square"/>
</svg>
