<svg width="48" height="48" viewBox="0 0 48 48" fill="none" xmlns="http://www.w3.org/2000/svg">
<path fill-rule="evenodd" clip-rule="evenodd" d="M22.6644 0.00495074C21.1274 0.0832152 20.1628 0.196892 18.8867 0.450172C13.4712 1.52507 8.60591 4.49106 5.12922 8.83708C2.26136 12.422 0.516833 16.7386 0.091316 21.3026C0.0181268 22.0876 -0.000428868 22.538 7.46527e-06 23.5187C0.000535659 24.7271 0.0442839 25.4481 0.182556 26.5271C0.506797 29.0575 1.23938 31.5051 2.36151 33.807C4.91535 39.046 9.37121 43.1862 14.7855 45.3509C19.0264 47.0465 23.7421 47.4633 28.2449 46.5406C32.9006 45.5866 37.1285 43.252 40.4516 39.8003C44.1456 35.9632 46.4258 30.992 46.9136 25.7119C46.9882 24.9043 47.005 24.4993 47.005 23.5073C47.005 22.5152 46.9882 22.1103 46.9136 21.3026C46.6839 18.8164 46.0375 16.3264 45.0208 14.0113C44.8022 13.5136 44.2927 12.4962 44.0201 12.0133C40.9549 6.58296 35.9215 2.59845 29.9788 0.89808C28.3569 0.43405 26.7658 0.160722 24.9609 0.0361141C24.6138 0.0121617 22.963 -0.0102291 22.6644 0.00495074ZM24.7313 1.55297C27.7875 1.73072 30.6296 2.48597 33.3347 3.83924C35.5875 4.9662 37.5797 6.43414 39.3485 8.27033C42.7116 11.7616 44.8234 16.257 45.3521 21.05C45.4571 22.0021 45.4686 22.2448 45.4686 23.5073C45.4686 24.7698 45.4571 25.0124 45.3521 25.9645C44.8262 30.7324 42.7167 35.2396 39.392 38.699C37.5919 40.5719 35.6081 42.038 33.3347 43.1753C30.7812 44.4527 28.1957 45.1732 25.248 45.429C24.679 45.4783 22.9583 45.499 22.3314 45.464C19.3122 45.2955 16.521 44.5703 13.8459 43.2592C11.4871 42.103 9.45625 40.6173 7.61196 38.6986C4.38564 35.3419 2.28952 30.9663 1.6987 26.3549C1.5687 25.3402 1.52543 24.6291 1.52543 23.5073C1.52543 22.6367 1.5427 22.2079 1.60634 21.4978C2.09834 16.008 4.67325 10.8776 8.8051 7.15487C12.0093 4.26788 16.0737 2.35874 20.3105 1.75047C20.9766 1.65484 21.7951 1.5738 22.3774 1.54583C22.7554 1.52769 24.3812 1.5326 24.7313 1.55297ZM21.5506 2.92127C21.5191 2.92494 21.3279 2.93975 21.1258 2.9542C20.7515 2.98093 20.123 3.0413 20.1137 3.05141C20.1053 3.06048 19.8971 8.74843 19.9049 8.7562C19.9088 8.76008 20.0817 8.73805 20.2892 8.70726C20.4967 8.67646 20.7997 8.63604 20.9626 8.61744C21.1254 8.59884 21.2653 8.57289 21.2734 8.55982C21.2872 8.53741 21.4146 5.04617 21.415 4.67602L21.4152 4.50378L21.4697 4.65032C21.4996 4.7309 21.8065 5.4258 22.1517 6.1945L22.7793 7.59217L23.3764 7.59171L23.9734 7.59125L24.6165 6.1559C24.9701 5.36646 25.2765 4.67179 25.2973 4.61217L25.3352 4.50378L25.3362 4.73343C25.3372 4.97621 25.4586 8.56428 25.4662 8.57463C25.4686 8.57796 25.6091 8.59657 25.7784 8.61599C25.9477 8.63542 26.256 8.67651 26.4635 8.70728C26.671 8.73808 26.8432 8.76079 26.8461 8.75778C26.8523 8.75151 26.645 3.05993 26.6383 3.05141C26.6162 3.02344 25.0474 2.90211 24.838 2.91217L24.6922 2.9192L24.0623 4.46933C23.7159 5.32191 23.4192 6.0763 23.4029 6.14577L23.3732 6.27208L23.3466 6.15301C23.3259 6.0603 22.5705 4.16369 22.1204 3.07421L22.0516 2.90772L21.8298 2.91116C21.7079 2.91305 21.5822 2.91762 21.5506 2.92127ZM33.6588 8.78368C32.8358 10.0703 32.1594 11.1328 32.1557 11.1446C32.152 11.1565 32.2787 11.2705 32.4372 11.398C32.5957 11.5255 32.8625 11.7503 33.0301 11.8976C33.1977 12.0448 33.3473 12.1621 33.3625 12.1582C33.4247 12.1422 36.1969 10.7035 36.271 10.6487L36.3512 10.5895L36.3066 10.6584C36.1962 10.8291 34.7783 13.5373 34.7785 13.577C34.7786 13.5885 34.8573 13.6857 34.9535 13.7931C35.144 14.0059 35.4789 14.4036 35.6737 14.6484L35.797 14.8033L35.8676 14.7612C36.0415 14.6574 40.5103 11.8354 40.5281 11.8182C40.5658 11.7817 39.6868 10.7044 39.6354 10.7241C39.5858 10.7432 36.6561 12.6682 36.5927 12.7235C36.461 12.8381 36.4457 12.8403 36.518 12.7344C36.5577 12.6763 36.8901 12.0352 37.2568 11.3098L37.9235 9.99079L37.4582 9.52593L36.9929 9.06105L35.6617 9.71907C34.9296 10.081 34.2841 10.4088 34.2273 10.4477L34.1239 10.5182L34.1877 10.439C34.2228 10.3955 34.7066 9.67941 35.2628 8.84778C36.1011 7.59445 36.2685 7.33118 36.2414 7.30913C35.9547 7.07624 35.1651 6.44432 35.1608 6.44432C35.1577 6.44432 34.4818 7.49703 33.6588 8.78368ZM10.5532 7.52505C10.11 7.60423 9.72565 7.84984 9.11798 8.44222C8.43087 9.11206 7.52254 10.1278 6.73064 11.1119L6.43963 11.4735L7.22622 12.2158C9.74439 14.5921 10.4879 15.2874 10.504 15.2812C10.5139 15.2774 10.7113 15.0676 10.9427 14.815C11.4522 14.259 11.8831 13.8016 12.879 12.7597C13.2956 12.3239 13.7094 11.8692 13.7988 11.7492C13.9909 11.4912 14.1314 11.2291 14.2051 10.9914C14.2792 10.7521 14.2806 10.4042 14.2083 10.1761C14.0551 9.69243 13.6415 9.2956 13.1773 9.18681C12.9562 9.13498 12.5211 9.15216 12.3324 9.22013C12.1606 9.28202 12.1544 9.28154 12.1821 9.20867C12.2552 9.01618 12.2205 8.59184 12.1105 8.33523C11.9623 7.98949 11.6486 7.70617 11.2754 7.5809C11.0769 7.51425 10.7536 7.48924 10.5532 7.52505ZM10.9588 8.73054C11.2506 8.85244 11.3547 9.18789 11.1983 9.50205C11.1584 9.58229 11.0726 9.70993 11.0078 9.78571C10.8926 9.92031 9.83974 11.0395 9.24713 11.6573L8.94976 11.9674L8.82577 11.8586C8.75757 11.7988 8.5781 11.6322 8.42696 11.4884L8.15214 11.2269L8.32362 11.0239C9.14561 10.0507 10.1755 8.97732 10.4586 8.79873C10.6287 8.69143 10.807 8.66711 10.9588 8.73054ZM22.9171 9.58358C18.4154 9.78045 14.3227 12.1034 11.851 15.8645C9.95317 18.7524 9.20731 22.2032 9.73748 25.643C10.0978 27.9808 11.0387 30.1649 12.4947 32.0429C13.2587 33.0285 14.226 33.9717 15.246 34.7257C18.5727 37.185 22.8671 38.031 26.9025 37.0221C30.8477 36.0358 34.1975 33.3323 35.9945 29.6845C36.7901 28.0695 37.251 26.3892 37.3994 24.5636C37.4359 24.1141 37.4354 22.9639 37.3985 22.4968C37.151 19.362 35.9452 16.5247 33.8803 14.2179C31.559 11.6247 28.382 10.0051 24.915 9.64765C24.2915 9.58335 23.5015 9.55802 22.9171 9.58358ZM12.7981 10.1945C12.85 10.2288 12.921 10.3 12.9558 10.3526C13.0092 10.4333 13.019 10.4721 13.0183 10.5993C13.0173 10.7678 12.9667 10.8885 12.8091 11.0983C12.7077 11.2331 10.5949 13.4831 10.5696 13.4831C10.5605 13.4831 10.3712 13.3133 10.149 13.1059L9.74501 12.7286L9.83345 12.6351C10.2847 12.1577 11.4356 10.9545 11.7102 10.6732C12.1838 10.188 12.299 10.114 12.5629 10.1258C12.6709 10.1306 12.7258 10.1466 12.7981 10.1945ZM24.6739 10.3849C29.8178 10.8201 34.2908 14.3378 35.982 19.2779C36.3959 20.4869 36.616 21.7111 36.6753 23.1341L36.6909 23.5073H30.0968H23.5027V30.0982V36.6891L23.3706 36.6888C22.6464 36.687 21.561 36.5638 20.7431 36.3907C17.7639 35.76 15.0485 34.0593 13.1345 31.6254C11.5355 29.5918 10.5673 27.1159 10.3687 24.5522C10.3559 24.388 10.3385 24.0857 10.33 23.8804L10.3144 23.5073H16.9085H23.5027V16.9132V10.3193L23.8873 10.3351C24.0989 10.3438 24.4528 10.3662 24.6739 10.3849Z" fill="white"/>
</svg>
