<svg width="78" height="78" viewBox="0 0 78 78" fill="none" xmlns="http://www.w3.org/2000/svg">
<g clip-path="url(#clip0_597_479)">
<path d="M39 0C17.4615 0 0 17.4615 0 39C0 60.5385 17.4615 78 39 78C60.5385 78 78 60.5385 78 39C78 17.4615 60.5385 0 39 0ZM75.4639 39C75.4639 59.1375 59.1398 75.4639 39 75.4639C18.8602 75.4639 2.5361 59.1375 2.5361 39C2.5361 18.8625 18.8625 2.5361 39 2.5361C59.1375 2.5361 75.4639 18.8625 75.4639 39Z" fill="white"/>
<path d="M57.9015 22.4535C58.4312 23.0222 59.1948 23.9394 59.6236 24.4966L67.5208 19.484C67.1264 18.9681 66.4982 18.1839 66.0281 17.6313L61.027 20.9378L60.6853 21.2313L60.9398 20.8599L63.148 16.4526L61.5865 14.8911L57.1769 17.0993L56.8055 17.3538L57.1013 17.0121L60.4101 12.0133C59.8277 11.518 59.2682 11.064 58.5551 10.5137L53.5425 18.404C54.1777 18.8924 55.0146 19.6102 55.5489 20.0986L60.268 17.6496L60.5706 17.4272L60.3482 17.7299L57.9015 22.4535Z" fill="white"/>
<path d="M39.9815 12.4534L42.1392 7.61963L42.2768 7.19083L42.2378 7.63797L42.4648 14.0975C43.2215 14.1685 44.0035 14.274 44.7739 14.4024L44.4231 4.83588C43.3453 4.71664 42.2722 4.6318 41.1991 4.58594L39.0734 9.86222L38.9978 10.2543L38.9221 9.86222L36.7987 4.58594C35.7256 4.6318 34.6524 4.71664 33.5747 4.83588L33.2239 14.4024C33.9943 14.274 34.7763 14.1708 35.533 14.0975L35.76 7.63797L35.721 7.19083L35.8586 7.61963L38.0163 12.4534H39.9815Z" fill="white"/>
<path d="M22.5292 20.0778C23.7766 18.7639 24.4829 17.2459 23.2354 15.7967C22.5567 15.0102 21.4171 14.8382 20.4723 15.2257L20.3783 15.2624L20.4081 15.1799C20.548 14.8061 20.6374 13.6137 19.6216 12.7905C19.1263 12.3892 18.5049 12.2402 17.8766 12.3044C16.7049 12.4236 15.8037 13.2239 13.3501 15.9595C12.6095 16.785 11.5318 18.0874 10.8851 18.9313L17.6244 25.3243C19.8578 22.8524 20.7681 21.9329 22.5292 20.0778ZM13.7354 18.514C15.0929 16.8538 16.5352 15.3473 17.1887 14.7511C17.3951 14.5631 17.6198 14.375 17.8927 14.3016C18.3352 14.1801 18.7915 14.4943 18.8947 14.9483C18.9979 15.4046 18.7113 15.838 18.3925 16.1957C17.6748 17.0051 15.0424 19.7591 15.0424 19.7591L13.7354 18.514ZM16.3747 21.018C16.3747 21.018 18.9383 18.3076 19.7752 17.4408C20.1077 17.0969 20.321 16.8882 20.5503 16.7758C20.8461 16.6314 21.1694 16.6016 21.4583 16.7942C21.7427 16.9845 21.8734 17.3124 21.8023 17.638C21.7174 18.0255 21.401 18.3947 21.1396 18.6768C20.7865 19.0551 17.7459 22.3089 17.7413 22.3135L16.3747 21.018Z" fill="white"/>
<path d="M62.1276 38.9999H39V15.8723C51.7814 15.8723 62.1276 26.2185 62.1276 38.9999Z" fill="white"/>
<path d="M39.0001 39V62.1276C26.2187 62.1276 15.8726 51.7814 15.8726 39H39.0001Z" fill="white"/>
<path d="M39.0001 15.8723V38.9999H15.8726C15.8726 26.2185 26.2187 15.8723 39.0001 15.8723Z" fill="#0066B1"/>
<path d="M62.1276 39C62.1276 51.7814 51.7814 62.1276 39 62.1276V39H62.1276Z" fill="#0066B1"/>
</g>
<defs>
<clipPath id="clip0_597_479">
<rect width="78" height="78" fill="white"/>
</clipPath>
</defs>
</svg>
