<svg width="201" height="33" viewBox="0 0 201 33" fill="none" xmlns="http://www.w3.org/2000/svg">
<g clip-path="url(#clip0_597_587)">
<path fill-rule="evenodd" clip-rule="evenodd" d="M16.9294 -1C11.0798 -1 5.92065 1.89038 2.88404 6.28324C16.6427 6.96689 29.6623 9.72913 29.4688 15.4795C29.6645 21.2298 16.489 24.0486 2.88404 24.6813C5.92743 29.0726 11.0796 31.963 16.9294 31.963C26.2747 31.963 33.8529 24.5793 33.8529 15.4795C33.8529 6.37971 26.2747 -1 16.9294 -1ZM20.2072 15.481C20.2072 11.6369 11.0248 8.16761 2.41822 6.989C0.838095 9.54038 0.000976563 12.4819 0.000976562 15.483C0.000976562 18.4841 0.838095 21.4256 2.41822 23.977C11.026 22.7971 20.2072 19.3279 20.2072 15.481Z" fill="white"/>
<path fill-rule="evenodd" clip-rule="evenodd" d="M156.911 21.9264V19.9375C155.228 21.7844 152.352 22.8555 149.674 22.8499C145.009 22.8389 141.757 20.0877 141.757 15.3627C141.757 10.6349 145.011 7.98297 149.683 7.98297C152.66 7.98297 154.73 9.01948 156.518 11.109L156.216 7.33651C154.019 6.84167 152.178 6.45299 149.637 6.45299C146.051 6.45299 142.641 7.42749 140.419 9.53507C138.664 11.1725 137.633 13.3709 137.633 15.4302C137.633 17.4866 138.664 19.6838 140.419 21.3225C142.565 23.35 145.808 24.4513 148.915 24.443C152.03 24.4442 154.98 23.5018 156.911 21.9264ZM63.1542 10.6073C61.0191 8.38819 57.1584 6.8416 51.2329 6.8416H44.5245C45.6589 7.29231 45.9883 7.87398 45.9883 9.64228V24.0653H51.8297C57.1335 24.0653 60.7214 22.7972 63.008 20.5739C64.407 19.2121 65.2189 17.4162 65.2189 15.4452C65.2189 13.7057 64.5159 12.0226 63.1541 10.6071L63.1542 10.6073ZM57.2755 21.7334C55.7235 22.4598 51.7387 22.6225 49.4588 22.4681V8.44055C52.2389 8.17041 55.3084 8.65144 56.8164 9.42744C58.3808 10.2227 60.997 12.1276 60.997 15.8974C60.997 18.5644 59.6407 20.6209 57.2755 21.7334ZM103.865 6.84185C105.003 7.29256 105.334 7.87423 105.334 9.64253V24.0655H108.802V6.84185H103.865ZM194.378 8.14576C192.968 7.27877 190.816 6.84185 187.723 6.84185H180.56C181.695 7.29256 182.023 7.87423 182.023 9.64253V24.0655H185.497V16.6321C187.575 16.8526 191.384 16.6968 192.841 16.1993C195.702 15.2248 196.566 13.386 196.566 11.8783C196.566 10.4076 195.885 9.07337 194.378 8.14576ZM188.11 15.1725C187.483 15.1725 185.848 15.1435 185.497 15.1022V8.384C186.415 8.28613 188.569 8.32197 189.488 8.50116C191.497 8.88984 192.737 10.0435 192.737 11.889C192.738 13.0882 192.14 15.1725 188.11 15.1725ZM117.594 11.91C116.385 10.715 116.646 7.97767 120.563 7.97767C123.947 7.97767 125.743 9.87152 125.743 9.87152L125.509 7.04445C125.509 7.04445 123.215 6.43799 120.526 6.43799C116.13 6.43799 114.122 8.87627 114.122 11.1092C114.122 16.1003 120.81 16.3179 123.121 18.6681C124.347 19.9031 124.279 22.8941 120.08 22.8941C116.026 22.8941 113.544 20.1967 113.544 20.1967L113.789 23.2278C113.789 23.2278 116.912 24.4586 120.075 24.4586C124.315 24.4586 126.889 22.3429 126.889 19.2844C126.887 14.7317 120.042 14.3275 117.594 11.91ZM176.882 16.7825C176.882 19.4289 176.37 20.8444 175.315 22.0243C173.832 23.677 171.49 24.4447 169.262 24.4502C167.918 24.4534 166.584 24.2081 165.328 23.7266C162.532 22.6391 161.112 20.504 161.112 16.9617V9.64276C161.112 7.87433 160.787 7.29267 159.648 6.84207H164.583V16.875C164.583 19.2499 164.955 20.2189 165.743 21.101C166.681 22.1568 168.164 22.5841 169.678 22.5841C171.232 22.5841 172.785 22.1665 173.838 21.0528C174.606 20.2258 175.036 19.1355 175.036 16.6971V6.84182H176.88L176.882 16.7825ZM88.7182 8.82815L93.7519 18.9493L99.2061 6.84052H101.239L92.9416 24.9175C92.9416 24.9175 85.8018 11.1175 85.0328 9.6412C84.1203 7.87278 83.4876 7.29111 82.1175 6.84052H87.8322C88.0183 7.40701 88.3174 8.09342 88.7185 8.8281L88.7182 8.82815ZM80.9995 24.0645H85.0532C82.2372 18.3706 76.4742 6.84755 76.4715 6.84077H72.1972C72.5597 6.94414 72.8285 7.32869 72.9112 7.61263C73.1083 8.3087 72.9043 9.30937 72.3612 10.5181L66.3227 24.0645H68.3365L70.5087 19.1548H78.5528L80.9995 24.0645ZM74.2939 10.3429L77.7109 17.5626H71.1445L74.2939 10.3429ZM199.341 7.0679C200.149 7.0679 200.741 7.69781 200.741 8.50414C200.741 9.30221 200.149 9.9321 199.341 9.9321C198.542 9.9321 197.946 9.30219 197.946 8.50414C197.946 7.69781 198.542 7.0679 199.341 7.0679ZM199.341 6.82807C198.412 6.82807 197.694 7.56272 197.694 8.50551C197.694 9.4428 198.412 10.1761 199.341 10.1761C200.266 10.1863 201.016 9.43029 200.999 8.50551C200.999 7.56272 200.28 6.82807 199.341 6.82807ZM198.983 8.6144H199.381L199.914 9.47036H200.191L199.621 8.6144C199.877 8.57168 200.106 8.41179 200.106 8.06994C200.106 7.72397 199.912 7.53516 199.482 7.53516H198.739V9.46898H198.984V8.6144H198.983ZM198.983 8.41179V7.73502H199.411C199.646 7.73502 199.861 7.80119 199.861 8.06996C199.861 8.40076 199.581 8.41179 199.293 8.41179H198.983Z" fill="white"/>
</g>
<defs>
<clipPath id="clip0_597_587">
<rect width="201" height="32.964" fill="white"/>
</clipPath>
</defs>
</svg>
