<svg width="198" height="22" viewBox="0 0 198 22" fill="none" xmlns="http://www.w3.org/2000/svg">
<path fill-rule="evenodd" clip-rule="evenodd" d="M79.7345 9.90237L79.6646 19.8067L78.9852 20.3482C78.6117 20.6461 78.3059 20.969 78.3059 21.0658C78.3059 21.1624 79.8066 21.2417 81.6407 21.2417C84.8992 21.2417 85.5513 21.0732 84.4899 20.505C83.6715 20.0671 83.4791 18.6032 83.55 13.3565L83.6169 8.40319L90.0395 15.1879C93.5719 18.9197 96.5962 21.9751 96.7599 21.9778C96.9867 21.9815 97.0754 19.6375 97.1305 12.2036L97.2031 2.42477L97.8824 1.84056C98.2559 1.51943 98.5617 1.19559 98.5617 1.12123C98.5617 1.04688 97.0611 0.985865 95.2269 0.985865C92.2066 0.985865 91.0794 1.20967 92.3832 1.5508C93.2473 1.77658 93.3869 2.77999 93.3172 8.26437L93.2508 13.5096L86.8282 6.7558C83.2958 3.04133 80.2703 0.00123607 80.105 9.63755e-07C79.8748 -0.00172819 79.7878 2.323 79.7345 9.90237ZM144.951 9.88631L144.878 19.8067L144.199 20.3482C143.825 20.6461 143.52 20.969 143.52 21.0658C143.52 21.1624 145.02 21.2417 146.855 21.2417C148.689 21.2417 150.189 21.1624 150.189 21.0658C150.189 20.969 149.884 20.6461 149.51 20.3484L148.831 19.8072L148.752 14.0602L148.673 8.31328L151.606 11.381C153.219 13.0682 156.145 16.1426 158.107 18.2129C160.07 20.2832 161.815 21.9785 161.985 21.98C162.226 21.9822 162.293 19.9495 162.293 12.6327C162.293 2.95315 162.391 1.88601 163.302 1.59675C164.537 1.20497 163.512 0.985865 160.441 0.985865C157.357 0.985865 156.344 1.20497 157.595 1.60169C158.409 1.86032 158.603 3.31825 158.531 8.65219L158.465 13.6334L152.079 6.87734C148.567 3.16163 145.543 0.0862116 145.359 0.0434768C145.081 -0.0207489 145.011 1.6837 144.951 9.88631ZM27.6037 0.747489C25.36 1.30675 23.0499 2.90794 21.7399 4.81174C20.4524 6.68293 19.947 8.68183 20.0525 11.4843C20.1325 13.6141 20.2499 14.1773 20.9052 15.5718C22.3281 18.6 24.804 20.6412 27.9122 21.3481C33.3939 22.5948 38.2434 20.5972 40.3861 16.2096C42.6414 11.5913 41.808 6.38354 38.2926 3.12903C36.2295 1.21905 34.7192 0.67363 31.2483 0.585443C29.7538 0.547401 28.1138 0.620273 27.6037 0.747489ZM105.98 0.801587C104.733 1.21881 102.866 3.12878 102.54 4.32066C101.658 7.54356 103.092 9.95696 107.132 12.0515C109.706 13.3854 110.666 14.3139 110.666 15.468C110.666 17.3832 109.305 18.5244 107.022 18.5244C105.457 18.5244 104.359 18.1556 103.177 17.234C102.659 16.8296 102.174 16.5591 102.1 16.6327C102.026 16.7066 102.045 17.6616 102.142 18.7551L102.318 20.7437L103.589 21.133C105.618 21.754 108.36 21.8664 109.982 21.3951C112.881 20.5525 114.413 18.6679 114.579 15.7434C114.66 14.3233 114.577 13.875 114.023 12.7421C113.264 11.1911 112.543 10.5916 109.394 8.89279C106.804 7.49489 106.219 6.94107 106.219 5.88258C106.219 4.83323 106.634 4.2053 107.59 3.80562C109.231 3.11989 111.605 3.62554 112.742 4.90339C113.657 5.93149 113.877 5.60765 113.877 3.23401V1.03552L112.704 0.88681C110.156 0.563952 106.817 0.521464 105.98 0.801587ZM125.918 0.747489C122.584 1.57847 119.952 4.0519 118.807 7.42894C118.355 8.7631 118.287 9.40832 118.378 11.5053C118.47 13.6262 118.597 14.2339 119.233 15.5928C120.638 18.5961 123.125 20.6426 126.227 21.3481C131.709 22.5948 136.558 20.5972 138.701 16.2096C140.956 11.5913 140.123 6.38354 136.607 3.12903C134.544 1.21905 133.034 0.67363 129.563 0.585443C128.068 0.547401 126.429 0.620273 125.918 0.747489ZM187.562 1.10765C184.388 2.71848 182.993 6.13331 184.121 9.53134C184.756 11.4401 185.8 12.5055 188.18 13.6695C190.924 15.0118 191.74 15.9759 191.89 18.0548C191.98 19.3016 191.91 19.6728 191.476 20.261C190.673 21.3459 191.258 21.3523 192.622 20.2736C194.092 19.1121 195.887 16.4934 196.808 14.1672C197.42 12.6231 197.48 12.1757 197.487 9.13759C197.495 5.41027 197.214 4.42021 195.639 2.62609C194.401 1.21683 193.131 0.670171 190.824 0.554318C189.066 0.466131 188.707 0.526899 187.562 1.10765ZM0 1.11506C0 1.20423 0.227754 1.46188 0.506148 1.68741C1.33169 2.3561 1.47027 3.71151 1.47027 11.1138C1.47027 18.5407 1.32824 19.9203 0.507136 20.469C0.228248 20.6555 0 20.9055 0 21.0248C0 21.1441 1.55624 21.2417 3.45831 21.2417C5.36037 21.2417 6.91661 21.1441 6.91661 21.0248C6.91661 20.9055 6.68021 20.651 6.3912 20.4591C5.60715 19.9384 5.46561 18.4861 5.4493 10.7795L5.43448 3.89949L7.51613 3.98644C9.92657 4.08747 10.7726 4.53829 11.3378 6.02289C11.6145 6.75012 11.6256 7.12312 11.3934 7.89828C10.9789 9.2821 9.91842 9.96067 7.97708 10.0842C7.12213 10.1388 6.42257 10.2951 6.42257 10.432C6.42257 10.9322 11.7338 19.4159 12.5974 20.2948C13.6292 21.3452 14.6837 21.6245 16.6772 21.3755C18.0887 21.1992 18.3579 20.9391 17.5672 20.5159C17.3115 20.3791 15.903 18.4202 14.4377 16.1631C12.3197 12.901 11.8452 12.0139 12.1238 11.8373C12.3168 11.7153 12.5541 11.6137 12.6512 11.6115C12.7486 11.6095 13.2384 11.2474 13.7399 10.8072C16.6764 8.22879 16.032 3.5623 12.4746 1.64245C11.5574 1.14766 11.0742 1.10369 5.74326 1.03132C2.58434 0.988089 0 1.02588 0 1.11506ZM45.205 1.20399C45.205 1.32404 45.4261 1.48016 45.6961 1.5508C46.6212 1.79264 46.7084 2.70909 46.6345 11.4228L46.5636 19.8028L45.8843 20.387C45.5108 20.7081 45.205 21.0408 45.205 21.1265C45.205 21.212 47.734 21.2449 50.8248 21.1994C56.0683 21.1221 56.5273 21.0786 57.6796 20.5488C60.1311 19.4221 61.1046 17.9177 61.0799 15.2939C61.0581 12.9879 59.7227 11.091 57.6001 10.351L56.8232 10.0802L57.8691 9.52862C61.3812 7.67596 60.4082 2.364 56.3501 1.23684C55.2497 0.931274 45.205 0.901631 45.205 1.20399ZM66.2019 1.21634C66.2019 1.34306 66.4217 1.51647 66.6905 1.60169C67.5837 1.88527 67.7134 3.27996 67.6348 11.7664L67.5605 19.807L66.8812 20.3482C66.5077 20.6461 66.2019 20.969 66.2019 21.0658C66.2019 21.1624 67.8137 21.2417 69.7837 21.2417C71.7537 21.2417 73.3655 21.1624 73.3655 21.0658C73.3655 20.969 73.0597 20.6461 72.6862 20.3482L72.0069 19.807L71.936 11.4248C71.8621 2.70909 71.9493 1.79264 72.8744 1.5508C74.2049 1.20275 73.0179 0.985865 69.7837 0.985865C67.7329 0.985865 66.2019 1.08443 66.2019 1.21634ZM172.52 1.82574C171.78 2.56557 171.68 2.81877 171.68 3.95013C171.68 5.08149 171.78 5.33469 172.52 6.07452C173.26 6.81435 173.513 6.91439 174.644 6.91439C175.776 6.91439 176.029 6.81435 176.769 6.07452C177.509 5.33469 177.609 5.08149 177.609 3.95013C177.609 2.81877 177.509 2.56557 176.769 1.82574C175.543 0.600264 173.746 0.600264 172.52 1.82574ZM176.244 2.47516C176.939 3.17028 176.906 4.76283 176.181 5.4871C175.349 6.31931 173.788 6.25237 173.013 5.35124C171.203 3.2471 174.278 0.509854 176.244 2.47516ZM173.737 3.05986C173.132 3.57984 173.079 3.7367 173.295 4.35228C173.445 4.77839 173.816 5.14942 174.242 5.29936C174.858 5.51575 175.015 5.46215 175.535 4.85769C176.274 3.99854 176.272 3.82637 175.52 3.07444C174.768 2.32225 174.596 2.32102 173.737 3.05986ZM33.736 4.29127C36.1739 5.42633 37.427 7.79601 37.4097 11.2373C37.3887 15.3643 34.9986 18.1687 31.2554 18.4582C28.283 18.6882 25.5401 16.9109 24.5972 14.1437C24.0962 12.6737 24.0935 9.56172 24.592 8.09886C25.8333 4.45628 30.1925 2.64116 33.736 4.29127ZM55.0053 4.34685C55.864 4.98787 56.2061 6.20643 55.7746 7.08607C55.2052 8.24658 54.2448 8.7426 52.3607 8.84907L50.6395 8.94639V6.48951C50.6395 5.13806 50.723 3.94791 50.8248 3.84465C50.9265 3.74139 51.7568 3.69841 52.6695 3.7493C53.8483 3.81501 54.5249 3.98817 55.0053 4.34685ZM132.051 4.29127C134.489 5.42633 135.742 7.79601 135.724 11.2373C135.704 15.3139 133.348 18.1267 129.677 18.4595C126.76 18.724 123.847 16.8886 122.935 14.2107C122.411 12.6732 122.397 9.59557 122.907 8.09886C124.148 4.45628 128.507 2.64116 132.051 4.29127ZM181.963 11.0483C181.606 12.2723 181.542 13.9553 181.792 15.5636C182.501 20.1323 184.915 22.4605 187.678 21.2384C189.478 20.4423 189.954 18.2907 188.687 16.6797C188.401 16.3168 187.229 15.5737 186.081 15.0283C184.321 14.1922 183.881 13.8589 183.272 12.8975C182.874 12.2708 182.549 11.5641 182.549 11.3269C182.549 10.7254 182.118 10.5202 181.963 11.0483ZM54.6232 12.1063C57.4395 12.8886 57.8701 16.6105 55.2805 17.7858C53.8332 18.4427 51.7916 18.4414 51.1335 17.7834C50.6993 17.3491 50.6395 16.96 50.6395 14.5721V11.8548L52.1834 11.8563C53.0326 11.8571 54.1304 11.9694 54.6232 12.1063Z" fill="white"/>
</svg>
