<svg width="130" height="31" viewBox="0 0 130 31" fill="none" xmlns="http://www.w3.org/2000/svg">
<mask id="mask0_314_2940" style="mask-type:luminance" maskUnits="userSpaceOnUse" x="0" y="0" width="130" height="31">
<path d="M129.459 0H0V30.6078H129.459V0Z" fill="white"/>
</mask>
<g mask="url(#mask0_314_2940)">
<path d="M30.5797 28.4059C31.2206 28.6897 31.9134 28.8376 32.6144 28.8401C34.214 28.8751 35.0845 28.2648 35.7313 26.8322L44.3047 7.74262C43.7452 7.49118 43.1419 7.35151 42.5288 7.33146C41.4234 7.30822 39.9415 7.53132 39.0006 9.78548L36.2252 16.3245L30.7799 7.47238C30.1803 7.31529 29.5645 7.22865 28.9449 7.2142C27.0163 7.2142 25.946 7.91856 24.8286 9.12762L19.5365 14.9044L23.7937 21.5962C24.5818 22.817 25.6167 23.4392 27.2989 23.4392C28.1366 23.4522 28.9684 23.2966 29.7448 22.9817L24.617 15.2679L28.2511 11.4175L34.2139 20.7627L30.5797 28.4059ZM19.3311 21.185C19.3311 22.5939 18.778 23.4041 16.026 23.4041C15.6955 23.406 15.3653 23.3825 15.0383 23.3339V4.66672C15.0383 3.24601 15.5204 1.76638 18.2958 1.76638C18.6436 1.76539 18.9906 1.80089 19.3311 1.87228V21.185ZM13.6545 18.3674C13.6545 20.9971 11.9373 22.911 8.44433 23.287C5.91582 23.5571 2.25804 23.2399 0.517424 23.0401C0.453302 22.7389 0.417919 22.4323 0.411751 22.1244C0.411751 19.835 1.64657 19.3068 2.81084 19.3068C4.0224 19.3068 5.92773 19.518 7.33895 19.518C8.90291 19.518 9.37345 18.9897 9.37345 18.4852C9.37345 17.8273 8.75007 17.5576 7.53885 17.3225L4.22214 16.6885C1.46994 16.1603 0 14.2582 0 12.2392C0 9.78543 1.74066 7.73068 5.16305 7.35525C7.75029 7.07323 10.9023 7.39027 12.6313 7.60159C12.6923 7.89119 12.7238 8.1862 12.7253 8.48213C12.7253 10.7713 11.514 11.2646 10.3497 11.2646C9.45578 11.2646 8.06808 11.1002 6.48033 11.1002C4.86901 11.1002 4.19862 11.5466 4.19862 12.0863C4.19862 12.6615 4.83373 12.8964 5.84514 13.0726L9.00888 13.6597C12.2548 14.2582 13.6545 16.1018 13.6545 18.3674Z" fill="white"/>
<path opacity="0.25" d="M44.3047 7.74262L41.1661 14.7309C41.0465 14.9759 40.8605 15.1825 40.6293 15.3271C40.3981 15.4717 40.131 15.5487 39.8583 15.5491L36.9908 15.6492C36.8365 15.6597 36.6886 15.7143 36.5645 15.8066C36.4405 15.8989 36.3456 16.0249 36.2912 16.1696L36.2924 16.1662L39.0006 9.78554C39.9415 7.53138 41.4234 7.30827 42.5288 7.33151C43.1419 7.35154 43.7452 7.4912 44.3047 7.74262ZM36.0832 16.0934L30.7799 7.47225C30.1803 7.31516 29.5645 7.22852 28.9449 7.21408C27.0163 7.21408 25.946 7.91844 24.8286 9.12747L19.5365 14.9044L19.9591 15.5686C20.0947 15.7739 20.2815 15.9401 20.5011 16.0509C20.7207 16.1617 20.9654 16.2131 21.211 16.2002C21.4624 16.1915 24.0191 16.1023 24.228 16.0946C24.4831 16.0737 24.7394 16.1176 24.973 16.2222C25.2067 16.3268 25.4101 16.4888 25.5643 16.6931L25.5637 16.692L24.617 15.2679L28.2511 11.4175L30.6925 15.2437C30.8413 15.4308 31.0315 15.5807 31.2482 15.6816C31.4648 15.7826 31.7019 15.8319 31.9408 15.8256C32.0687 15.8212 35.2675 15.7094 35.4097 15.7044C35.5454 15.7084 35.678 15.746 35.7956 15.8139C35.9131 15.8819 36.012 15.9778 36.0832 16.0934ZM18.2958 1.76638C15.5203 1.76638 15.0383 3.24598 15.0383 4.66672V17.4603C15.0392 17.1779 15.1501 16.9071 15.3475 16.7052C15.5449 16.5033 15.8132 16.3863 16.0954 16.379L18.2441 16.3039C18.3872 16.3037 18.5288 16.2752 18.6609 16.2202C18.7929 16.1652 18.9129 16.0847 19.0138 15.9833C19.1148 15.8819 19.1947 15.7617 19.2492 15.6294C19.3036 15.497 19.3314 15.3553 19.3311 15.2122V1.87223C18.9906 1.80085 18.6436 1.76538 18.2958 1.76638ZM9.00888 13.6597L5.84511 13.0726C4.83365 12.8964 4.19859 12.6615 4.19859 12.0863C4.19859 11.5465 4.86898 11.1002 6.48028 11.1002C8.068 11.1002 9.45571 11.2646 10.3496 11.2646C11.514 11.2646 12.7253 10.7713 12.7253 8.48213C12.7237 8.1862 12.6922 7.89119 12.6313 7.6016C10.9023 7.39027 7.75032 7.07323 5.16302 7.35525C1.74066 7.73068 0 9.78549 0 12.2392C0.00385959 12.8866 0.156719 13.5245 0.446736 14.1033C0.736753 14.6822 1.15614 15.1865 1.67241 15.5772C2.44465 16.0572 3.31057 16.3666 4.21214 16.4846C5.38485 16.643 6.56857 16.7051 7.75142 16.6703C8.12654 16.6566 10.9193 16.559 11.5258 16.5385C12.9414 16.4908 13.7083 17.6983 13.6294 18.9081C13.631 18.8917 13.632 18.8761 13.6335 18.8596L13.6347 18.8454C13.6478 18.6889 13.6544 18.5295 13.6546 18.3674C13.6545 16.1018 12.2548 14.2582 9.00888 13.6597Z" fill="url(#paint0_linear_314_2940)" fill-opacity="0.2"/>
<path d="M127.419 0H50.926C49.7991 0 48.8855 0.913571 48.8855 2.04052V28.5672C48.8855 29.6942 49.7991 30.6078 50.926 30.6078H127.419C128.546 30.6078 129.459 29.6942 129.459 28.5672V2.04052C129.459 0.913571 128.546 0 127.419 0Z" fill="white"/>
<path d="M54.7564 21.9919C54.576 20.73 54.9666 20.0689 55.6877 20.0689C56.3789 20.0689 58.0615 20.8202 60.4049 20.8202C62.8688 20.8202 63.8002 19.9489 63.8002 18.8071C63.8002 17.9958 63.4398 17.2747 61.2162 16.6739L58.6624 15.9825C55.838 15.2315 54.7263 13.8192 54.7263 12.0766C54.7263 9.91328 56.439 7.99048 60.3148 7.99048C62.0948 8.00504 63.8607 8.30952 65.5428 8.89193C65.7832 10.1237 65.3927 10.7847 64.6414 10.7847C63.9806 10.7847 62.4785 10.1538 60.3449 10.1538C58.0615 10.1538 57.2201 10.9349 57.2201 11.9564C57.2201 12.6778 57.5506 13.3386 59.5939 13.9095L62.2078 14.6306C65.1221 15.4419 66.2939 16.7939 66.2939 18.7169C66.2939 20.9704 64.5513 22.9835 60.3448 22.9835C58.4407 22.9566 56.5535 22.6218 54.7564 21.9919Z" fill="#373737"/>
<path d="M83.6036 15.4717C83.6036 20.1889 80.2985 22.9832 76.6628 22.9832C75.6956 22.9973 74.739 22.7813 73.8718 22.3529C73.0046 21.9245 72.2516 21.2961 71.6751 20.5194V26.5887C71.6751 27.1596 71.3448 27.52 70.3833 27.52C69.9895 27.523 69.5965 27.4827 69.2114 27.4V8.26065C69.5964 8.17769 69.9894 8.13735 70.3833 8.14034C71.3448 8.14034 71.6751 8.50102 71.6751 9.07168V10.4539C72.2516 9.67722 73.0046 9.04878 73.8718 8.62041C74.739 8.19204 75.6956 7.97601 76.6628 7.99015C80.2985 7.99015 83.6036 10.7844 83.6036 15.4717ZM81.1097 15.4717C81.1097 12.3168 79.0065 10.1535 76.182 10.1535C75.2526 10.1537 74.3411 10.4088 73.5465 10.8908C72.7519 11.3729 72.1046 12.0636 71.6751 12.8878V18.0857C72.1046 18.9099 72.7519 19.6006 73.5465 20.0826C74.3411 20.5647 75.2526 20.8197 76.182 20.82C79.0065 20.8199 81.1097 18.6565 81.1097 15.4717Z" fill="#373737"/>
<path d="M85.9109 15.472C85.9109 11.1753 89.0659 7.99048 93.3023 7.99048C97.569 7.99048 100.724 11.1753 100.724 15.472C100.724 19.7384 97.569 22.9835 93.3023 22.9835C89.0658 22.9835 85.9109 19.7384 85.9109 15.472ZM98.23 15.472C98.23 12.1669 96.0064 10.1538 93.3023 10.1538C90.6282 10.1538 88.4048 12.1669 88.4048 15.472C88.4048 18.7471 90.6282 20.8202 93.3023 20.8202C96.0064 20.8202 98.23 18.747 98.23 15.472Z" fill="#373737"/>
<path d="M112.637 9.34244C112.637 10.334 112.217 10.5443 111.195 10.5443C109.122 10.5443 107.379 11.5059 106.298 13.7592V21.9016C106.298 22.5027 105.967 22.8332 104.976 22.8332C104.592 22.8329 104.209 22.7926 103.834 22.7129V8.26094C104.209 8.18124 104.592 8.14091 104.976 8.14062C105.967 8.14062 106.298 8.50131 106.298 9.07197V11.085C107.71 8.95186 109.843 7.87033 112.517 8.23087C112.586 8.59777 112.626 8.96939 112.637 9.34244Z" fill="#373737"/>
<path d="M123.442 21.9919C122.15 22.6231 120.734 22.9616 119.296 22.9835C116.441 22.9835 114.729 21.3009 114.729 18.5067V6.0978C114.729 5.46685 115.089 5.04614 116.051 5.04614C116.436 5.05438 116.818 5.10475 117.192 5.19635V8.32115H122.811C122.863 8.64934 122.893 8.9806 122.901 9.31276C122.901 10.1841 122.541 10.4845 122 10.4845H117.192V18.3263C117.192 20.0089 117.974 20.8201 119.566 20.8201C121.008 20.8201 121.82 20.1892 122.51 20.1892C123.232 20.1892 123.592 20.79 123.442 21.9919Z" fill="#373737"/>
<path opacity="0.05" d="M50.3543 15.1861C50.3543 15.1861 50.4209 15.1803 50.5473 15.1759C56.5824 14.9614 127.935 12.4738 127.935 12.4738C128.342 12.4699 128.731 12.3045 129.017 12.0139C129.303 11.7233 129.461 11.3313 129.458 10.9238L129.459 2.04052C129.459 1.49934 129.244 0.980325 128.862 0.597654C128.479 0.214983 127.96 0 127.419 0H50.926C50.3848 0 49.8658 0.214983 49.4832 0.597654C49.1005 0.980325 48.8855 1.49934 48.8855 2.04052V16.7719C48.8754 16.3683 49.0232 15.9767 49.2976 15.6804C49.5719 15.3842 49.9511 15.2069 50.3543 15.1861Z" fill="url(#paint1_linear_314_2940)"/>
</g>
<defs>
<linearGradient id="paint0_linear_314_2940" x1="22.3649" y1="16.1118" x2="22.0069" y2="5.86042" gradientUnits="userSpaceOnUse">
<stop/>
<stop offset="0.1203" stop-opacity="0.8347"/>
<stop offset="0.2693" stop-opacity="0.6576"/>
<stop offset="0.4195" stop-opacity="0.5107"/>
<stop offset="0.5684" stop-opacity="0.3965"/>
<stop offset="0.7156" stop-opacity="0.3152"/>
<stop offset="0.8603" stop-opacity="0.2664"/>
<stop offset="1" stop-opacity="0.25"/>
</linearGradient>
<linearGradient id="paint1_linear_314_2940" x1="89.3443" y1="14.3104" x2="88.812" y2="-0.932542" gradientUnits="userSpaceOnUse">
<stop/>
<stop offset="0.1203" stop-opacity="0.8347"/>
<stop offset="0.2693" stop-opacity="0.6576"/>
<stop offset="0.4195" stop-opacity="0.5107"/>
<stop offset="0.5684" stop-opacity="0.3965"/>
<stop offset="0.7156" stop-opacity="0.3152"/>
<stop offset="0.8603" stop-opacity="0.2664"/>
<stop offset="1" stop-opacity="0.25"/>
</linearGradient>
</defs>
</svg>
