<svg width="95" height="57" viewBox="0 0 95 57" fill="none" xmlns="http://www.w3.org/2000/svg">
<path d="M35.8582 0C34.015 0 32.7014 0.917476 32.7014 3.1733V42.9223C32.7014 43.8069 33.2874 44.1833 34.0287 44.1833H38.6562C40.5066 44.1833 41.8157 43.2618 41.8157 41.0045V1.26104C41.8157 0.372032 41.2254 0 40.4884 0H35.8582ZM11.7384 13.5513C4.68857 13.5513 0.987793 17.6356 0.987793 22.8422C0.987793 27.4697 3.83656 30.288 9.52534 31.5564L18.6065 33.5873C20.4525 34.0028 21.0265 34.5225 21.0265 35.4636C21.0265 36.1861 20.4524 36.7633 18.7858 36.7633H4.70468C2.44742 36.7633 1.53967 38.0715 1.53967 39.9118V42.8533C1.53967 43.5903 1.905 44.1833 2.78967 44.1833H18.2367C26.5795 44.1833 29.9476 40.0925 29.9476 35.2594C29.9476 30.2599 27.0584 27.4438 21.4073 26.1783L12.3234 24.1419C10.4773 23.7293 9.90613 23.2095 9.90613 22.2655C9.90613 21.546 10.4788 20.9713 12.1468 20.9713H25.6595C27.9109 20.9713 28.8217 19.6592 28.8217 17.8146V14.8814C28.8217 14.1429 28.4549 13.5513 27.5717 13.5513H11.7384ZM57.1248 13.5513C55.7333 13.5513 54.9923 13.9234 54.1612 14.8124L42.3731 27.4697L52.947 42.8781C53.5581 43.7671 54.068 44.1833 54.9918 44.1833H61.2914C62.234 44.1833 62.7815 43.8068 62.7815 43.0133C62.7815 42.5268 62.5451 42.2107 62.2324 41.7633L52.947 28.0188L59.9973 20.425L73.9156 41.0045L67.7622 54.0122C67.5928 54.3945 67.3952 54.7633 67.3952 55.1326C67.3952 55.884 67.9462 56.2473 68.6976 56.2473H74.2799C75.4179 56.2473 75.9087 55.8545 76.3301 54.9394L94.4813 15.7947C94.6609 15.4096 94.8511 15.0452 94.8511 14.6717C94.8511 13.9217 94.3058 13.5513 93.5514 13.5513H87.925C86.7986 13.5513 86.2873 13.9484 85.8776 14.8648L77.9388 32.489L66.8654 15.0469C66.182 13.9654 65.4609 13.5513 63.819 13.5513H57.1248Z" fill="white"/>
</svg>
