<svg width="223" height="82" viewBox="0 0 223 82" fill="none" xmlns="http://www.w3.org/2000/svg">
<path fill-rule="evenodd" clip-rule="evenodd" d="M133.142 65.0524C133.07 65.0434 133 65.0245 132.933 64.9963C132.933 64.9439 132.907 64.8916 132.892 64.8392C132.847 64.6927 132.816 64.5425 132.798 64.3903C132.795 64.2786 132.835 64.1699 132.91 64.0873C133.116 63.889 133.333 63.7132 133.546 63.5C133.76 63.2868 134.078 63.0174 134.332 62.7518C134.732 62.3478 135.114 61.9139 135.484 61.4912L135.622 61.3378C135.75 61.1957 135.866 61.0386 135.997 60.8702L136.199 60.6009L136.288 60.4849H135.701L134.953 60.5672L133.92 60.6794H133.775C133.4 60.7131 133.026 60.7505 132.652 60.7655H132.592C132.438 60.7699 132.284 60.7364 132.145 60.6679C132.006 60.5995 131.886 60.4981 131.796 60.3727V59.7667C131.796 59.6956 131.818 59.6133 131.829 59.5348C131.856 59.3552 131.882 59.1607 131.923 58.9998C131.956 58.8957 132 58.7954 132.054 58.7006L132.106 58.607L132.226 58.7043C132.332 58.8097 132.46 58.8913 132.6 58.9437C132.768 58.9901 132.942 59.0115 133.116 59.0073H133.337C133.808 59.0073 134.283 58.9549 134.725 58.9213C134.871 58.9213 135.013 58.8801 135.155 58.8577L135.346 58.824L135.525 58.7941C135.66 58.7716 135.798 58.7492 135.937 58.7193L136.184 58.6557C136.277 58.6295 136.367 58.6033 136.46 58.5846C136.73 58.5322 137.014 58.4798 137.306 58.4499C137.725 58.405 138.275 57.8514 138.982 56.7553C139.509 55.9399 141.858 52.7602 142.146 52.3749C142.285 52.1878 143.205 50.9608 143.37 50.7963C143.43 50.7401 143.545 50.6167 143.628 50.613C143.71 50.6092 143.695 50.6691 143.706 50.7588C143.718 50.837 143.718 50.9164 143.706 50.9945L143.646 51.4733C143.549 52.0345 143.448 52.618 143.332 53.1904C143.272 53.4896 143.205 53.7852 143.134 54.0807C143.063 54.3762 142.969 54.7765 142.902 55.1281C142.79 55.7042 142.719 56.3027 142.659 56.8189C142.643 56.8747 142.639 56.9332 142.647 56.9907C142.656 57.0481 142.676 57.103 142.708 57.1519C142.734 57.1784 142.767 57.1989 142.802 57.2118C142.838 57.2247 142.876 57.2298 142.913 57.2267C142.977 57.2253 143.041 57.2178 143.104 57.2042C143.186 57.1974 143.269 57.1974 143.351 57.2042C143.411 57.1978 143.471 57.1978 143.531 57.2042C143.496 57.328 143.442 57.4455 143.37 57.5521C143.228 57.7504 143.074 57.9487 142.925 58.1394C142.775 58.3302 142.704 58.42 142.599 58.5621C142.512 58.6686 142.46 58.7992 142.449 58.9362V59.1532C142.433 59.4858 142.451 59.8192 142.502 60.1482C142.521 60.2492 142.535 60.3502 142.55 60.455C142.577 60.8295 142.693 61.1923 142.887 61.5136C142.941 61.6597 142.941 61.8202 142.887 61.9663C142.821 62.2181 142.73 62.4625 142.614 62.6957C142.57 62.798 142.49 62.8806 142.39 62.9277C142.304 62.9009 142.233 62.8418 142.191 62.7631L142.12 62.576C141.987 62.2669 141.896 61.9409 141.851 61.6072C141.816 61.1754 141.807 60.7419 141.825 60.3091C141.825 60.1258 141.825 59.935 141.825 59.7555C141.825 59.6432 141.825 59.1195 141.825 59.1195L140.964 59.3066L140.399 59.4263C139.999 59.5086 139.588 59.5946 139.184 59.6956L139.09 59.7181C138.651 59.8122 138.222 59.9462 137.807 60.1183C137.591 60.2422 137.409 60.4168 137.276 60.6271L137.209 60.7168C136.977 61.0161 136.752 61.3191 136.524 61.6221C136.18 62.0822 135.824 62.5573 135.462 63.0062C135.233 63.2754 134.983 63.5256 134.713 63.7544L134.459 63.9788C134.186 64.2332 133.905 64.4763 133.621 64.727L133.374 64.9439C133.247 65.0225 133.202 65.0524 133.142 65.0524ZM142.431 53.557C141.598 54.5264 140.831 55.5498 140.134 56.6207C139.88 56.9948 139.621 57.3688 139.36 57.7429L139.3 57.829L139.401 57.8551L139.468 57.8776C139.495 57.8888 139.525 57.8951 139.554 57.8963H139.584L140.706 57.7018L141.23 57.6082C141.316 57.5921 141.404 57.5821 141.492 57.5783C141.617 57.5669 141.736 57.5185 141.834 57.4393C141.932 57.36 142.004 57.2535 142.042 57.1332L142.09 56.8376C142.24 55.9511 142.39 55.072 142.535 54.1854C142.554 54.0657 142.569 53.946 142.584 53.8113L142.618 53.5719L142.449 53.5046L142.431 53.557Z" fill="white"/>
<path fill-rule="evenodd" clip-rule="evenodd" d="M147.653 58.1655C147.72 57.6418 147.776 57.1779 147.84 56.7141C148.035 55.4076 148.393 54.1307 148.906 52.9134C149.026 52.5992 149.211 52.3138 149.449 52.0759C149.687 51.838 149.972 51.6531 150.286 51.5331C150.423 51.4769 150.576 51.4769 150.713 51.5331C150.866 51.6378 150.926 51.7538 150.907 52.0418C150.907 52.1989 150.765 53.0518 150.739 53.2164C150.386 54.9672 149.891 56.6862 149.258 58.3563C148.991 58.9545 148.897 59.6151 148.985 60.2641C149.053 60.9152 149.088 61.5695 149.089 62.2243C149.089 62.4075 148.734 62.7779 148.554 62.8003C148.375 62.8228 148.135 62.6582 148.046 62.344C147.956 62.0297 147.851 61.6145 147.754 61.2516C147.739 61.2075 147.721 61.1649 147.698 61.1245C147.324 61.4985 147.208 61.6744 146.864 62.0447C145.82 63.1669 144.881 62.9761 144.443 62.9126C144.238 62.8813 144.045 62.7954 143.884 62.6637C143.724 62.5321 143.601 62.3596 143.53 62.1644C143.389 61.6878 143.353 61.1861 143.426 60.6943C143.478 59.8889 143.729 59.1089 144.155 58.4236C144.596 57.7035 145.301 57.1841 146.119 56.9759C146.347 56.9135 146.589 56.9324 146.804 57.0294C147.019 57.1263 147.194 57.2953 147.297 57.5071L147.653 58.1655ZM146.834 59.8937C146.908 59.5991 146.908 59.2906 146.834 58.9959C146.62 58.2478 145.794 58.1505 145.057 58.7266C144.8 58.9434 144.605 59.2236 144.491 59.5394C144.377 59.8551 144.347 60.1953 144.406 60.5259C144.454 60.7963 144.59 61.0431 144.793 61.2279C144.996 61.4126 145.254 61.5249 145.528 61.5472C145.835 61.5657 146.143 61.5128 146.426 61.3927C146.71 61.2726 146.961 61.0884 147.162 60.8547C147.362 60.621 147.506 60.3441 147.581 60.0456C147.657 59.7471 147.662 59.4352 147.597 59.1344C147.541 59.2316 147.17 59.9349 146.834 59.8937ZM148.797 57.7241C148.797 57.7727 148.91 57.7952 148.936 57.7241C149.044 57.436 149.149 57.148 149.258 56.8562C149.467 56.2876 149.852 54.9858 150.043 54.3985C150.135 54.0952 150.203 53.7849 150.245 53.4708C150.286 53.1977 150.036 52.9546 149.759 53.1528C149.642 53.2252 149.541 53.3205 149.462 53.433C149.383 53.5455 149.327 53.6729 149.299 53.8075C148.995 54.8385 148.829 55.9051 148.805 56.9797C148.812 57.234 148.801 57.4809 148.797 57.7241Z" fill="white"/>
<path fill-rule="evenodd" clip-rule="evenodd" d="M157.532 61.8353C157.08 62.3281 156.504 62.6899 155.864 62.8827C155.434 63.0354 154.968 63.0536 154.528 62.9351C154.366 62.8809 154.224 62.7785 154.122 62.6414C154.02 62.5043 153.962 62.3392 153.956 62.1682C153.922 61.349 154.289 60.5971 154.685 59.8414C155.042 59.1449 155.527 58.5218 156.114 58.0047C156.486 57.6406 156.943 57.3745 157.443 57.2302C157.943 57.0859 158.471 57.068 158.98 57.178C159.139 57.2123 159.281 57.2993 159.384 57.4249C159.676 57.87 159.945 58.3227 159.522 58.809C159.1 59.2953 159.253 59.7367 159.253 60.2118C159.219 60.6625 159.352 61.11 159.627 61.4687C159.971 61.8428 159.953 61.8951 159.507 62.2168C159.354 62.3375 159.221 62.4829 159.115 62.647C159.019 62.7707 158.893 62.8673 158.748 62.927C158.604 62.9867 158.447 63.0076 158.292 62.9874C157.779 62.9725 157.543 61.9213 157.532 61.8353ZM155.262 60.6008C155.226 60.7754 155.256 60.957 155.346 61.1105C155.437 61.264 155.581 61.3783 155.752 61.4313C156.287 61.6445 157.196 61.2405 157.839 60.4213C158.613 59.4337 158.243 58.6706 157.712 58.6519C156.964 58.6257 156.215 59.2017 156.01 59.4C155.63 59.7031 155.366 60.1268 155.262 60.6008Z" fill="white"/>
<path fill-rule="evenodd" clip-rule="evenodd" d="M167.453 59.2615L166.304 59.2092C165.885 59.1905 165.822 59.0932 165.93 58.6855C166.009 58.4049 166.076 58.1243 166.17 57.8475C166.202 57.6475 166.309 57.4672 166.47 57.3435C166.63 57.2198 166.832 57.1619 167.034 57.1817C167.202 57.1825 167.369 57.17 167.535 57.1442C167.587 57.1299 167.636 57.1044 167.677 57.0695C167.718 57.0346 167.752 56.9912 167.775 56.9422C167.999 56.1193 168.564 53.497 168.829 52.689C169.04 52.1716 169.29 51.6714 169.578 51.1927C169.591 51.1458 169.615 51.1027 169.647 51.0666C169.68 51.0304 169.72 51.0022 169.765 50.9842C169.811 50.9661 169.859 50.9586 169.908 50.9624C169.956 50.9661 170.003 50.9809 170.045 51.0056C170.031 51.1652 170.007 51.3239 169.974 51.4807C169.798 52.2288 169.319 54.0244 169.174 54.7913C169.084 55.2552 168.96 56.4934 168.927 56.9647C168.927 57.1255 168.979 57.1517 169.144 57.1517C169.795 57.1517 170.442 57.1966 171.089 57.2527C171.353 57.2911 171.614 57.3537 171.867 57.4398C172.073 57.4959 172.088 57.5931 171.934 57.7465C171.859 57.8288 171.807 57.9448 171.717 58.0046C171.455 58.1901 171.18 58.3576 170.894 58.5059C170.322 58.7889 169.712 58.9903 169.084 59.1044C169.046 59.106 169.01 59.1159 168.977 59.1335C168.944 59.1511 168.915 59.1759 168.893 59.206C168.87 59.2361 168.855 59.2709 168.848 59.3077C168.841 59.3445 168.842 59.3824 168.852 59.4187C168.923 59.8264 168.998 60.6082 169.058 61.0197C169.101 61.2428 169.087 61.4732 169.016 61.6893C168.881 61.9123 168.717 62.1172 168.53 62.2991C168.381 62.4824 168.242 62.6731 168.085 62.8602C168.057 62.9044 168.017 62.9391 167.969 62.9596C167.921 62.9801 167.868 62.9854 167.817 62.9748C167.766 62.9642 167.72 62.9382 167.684 62.9003C167.648 62.8624 167.625 62.8145 167.617 62.7629C167.55 62.2654 167.509 61.7604 167.475 61.2666C167.442 60.7728 167.472 59.7853 167.453 59.2615Z" fill="white"/>
<path fill-rule="evenodd" clip-rule="evenodd" d="M161.265 60.6572C161.509 60.2831 162.537 58.7868 162.904 58.3604C163.238 57.9323 163.676 57.5963 164.176 57.384C164.306 57.3158 164.452 57.2821 164.599 57.2859C164.746 57.2898 164.89 57.3312 165.016 57.4061C165.143 57.481 165.248 57.587 165.323 57.7141C165.397 57.8412 165.437 57.9851 165.44 58.1322C165.478 58.7045 165.47 59.2806 165.526 59.8492C165.564 60.2233 165.781 61.4989 166.046 61.8019C166.083 61.8374 166.112 61.881 166.13 61.9293C166.147 61.9777 166.153 62.0294 166.147 62.0805C166.142 62.1316 166.124 62.1807 166.096 62.2238C166.068 62.267 166.031 62.3031 165.986 62.3294C165.728 62.5351 165.478 62.7408 165.212 62.9279C165.149 62.965 165.079 62.9888 165.007 62.998C164.935 63.0071 164.861 63.0013 164.791 62.981C164.721 62.9607 164.656 62.9262 164.6 62.8798C164.543 62.8333 164.497 62.7759 164.464 62.7109C164.321 62.3953 164.253 62.0509 164.266 61.7046C164.288 61.3044 164.094 60.0026 164.052 59.6061C164.011 59.2095 163.678 59.1385 163.353 59.3367C162.978 59.6174 162.673 59.981 162.463 60.3991C161.965 61.1473 161.475 61.8954 160.966 62.6436C160.918 62.7147 160.865 62.8119 160.809 62.8793C160.753 62.9466 160.596 63.1449 160.435 63.0513C160.301 62.9637 160.203 62.831 160.158 62.6773C160.007 61.7373 160.057 60.776 160.304 59.8567C160.496 59.1103 160.729 58.3748 161 57.6534C161.02 57.5982 161.046 57.5455 161.078 57.4963C161.108 57.4312 161.158 57.3777 161.221 57.3439C161.284 57.3101 161.356 57.2979 161.426 57.3092C161.539 57.3504 161.531 57.5411 161.516 57.6496C161.441 58.2743 161.325 58.8953 161.265 59.52C161.246 59.8988 161.246 60.2784 161.265 60.6572Z" fill="white"/>
<path fill-rule="evenodd" clip-rule="evenodd" d="M151.128 56.5385C151.128 56.6021 151.034 57.1632 150.975 57.5411C150.41 61.0237 151.117 61.712 151.33 61.7906C151.543 61.8691 152.852 61.237 153.919 57.8403C154.043 57.4706 154.19 57.1083 154.356 56.7555C154.403 56.7037 154.461 56.664 154.526 56.6399C154.591 56.6157 154.661 56.6079 154.73 56.6171C154.798 56.6532 154.854 56.7073 154.892 56.7733C154.93 56.8394 154.949 56.9148 154.947 56.9912C154.903 57.3529 154.83 57.7106 154.73 58.061C154.519 58.7937 154.242 59.506 153.904 60.1895C152.83 62.3929 151.521 63.0737 151.068 63.0625C150.496 63.0625 150.133 62.2769 150.054 61.9402C149.822 60.9919 149.793 60.0053 149.968 59.0448C150.043 58.5799 150.141 58.1192 150.264 57.6645C150.373 57.3417 150.515 57.0309 150.687 56.7368C150.754 56.5946 151.076 56.2804 151.128 56.5385Z" fill="white"/>
<path fill-rule="evenodd" clip-rule="evenodd" d="M212.103 62.7893H211.923C211.33 62.7827 210.747 62.627 210.229 62.3366C209.481 61.9626 209.391 61.5548 209.436 60.8029C209.476 60.1977 209.596 59.6003 209.791 59.026C209.847 58.8502 209.937 58.5659 209.978 58.3864L210.031 58.1731C210.044 58.1287 210.047 58.0821 210.041 58.0363C210.034 57.9905 210.018 57.9466 209.993 57.9075C209.96 57.8658 209.919 57.8316 209.872 57.8071C209.825 57.7826 209.773 57.7683 209.72 57.7654H209.638C209.426 57.7768 209.221 57.845 209.045 57.9628C208.868 58.0806 208.727 58.2437 208.635 58.435L208.411 58.9811C208.344 59.1457 208.287 59.3178 208.224 59.4862C207.871 60.4328 207.185 61.2178 206.294 61.6932C206.219 61.7428 206.132 61.7724 206.043 61.7793C205.979 61.7793 205.886 61.7606 205.777 61.596C205.486 61.1471 205.53 60.6458 205.62 60.036C205.706 59.5308 205.823 59.0311 205.968 58.5397C206.025 58.323 206.094 58.1095 206.174 57.9001L206.32 57.526C206.417 57.2679 206.526 57.0135 206.634 56.7479L206.832 56.2616L206.683 56.2242C206.594 56.1994 206.502 56.1868 206.41 56.1868C206.243 56.1902 206.081 56.2373 205.938 56.3233C205.796 56.4093 205.678 56.5312 205.598 56.6768C205.443 56.927 205.307 57.1884 205.19 57.4586L205.067 57.728C204.93 58.0082 204.811 58.2968 204.711 58.5921C204.502 59.2954 204.36 59.8378 204.259 60.3503C204.166 60.7662 204.135 61.1934 204.165 61.6184C204.219 61.9954 204.329 62.3623 204.491 62.707C204.53 62.8088 204.592 62.9004 204.671 62.9749C204.751 63.0494 204.846 63.1049 204.951 63.1372C205.117 63.1625 205.284 63.1762 205.452 63.1783C205.634 63.1828 205.816 63.1523 205.987 63.0885C206.335 62.9363 206.663 62.7415 206.963 62.5087L207.124 62.3927C207.341 62.2431 207.543 62.0748 207.76 61.8952L207.876 61.8017C207.898 61.9177 207.917 62.0299 207.932 62.1421C207.99 62.522 208.193 62.8649 208.497 63.0998C208.949 63.356 209.439 63.5391 209.948 63.6422C210.333 63.6892 210.721 63.703 211.108 63.6833C211.519 63.6527 211.911 63.4959 212.23 63.2344C212.267 63.166 212.286 63.0895 212.286 63.0119C212.286 62.9342 212.267 62.8577 212.23 62.7893C212.215 62.7556 212.103 62.7893 212.103 62.7893Z" fill="white"/>
<path fill-rule="evenodd" clip-rule="evenodd" d="M182.36 59.576C182.289 59.4451 182.109 59.3179 181.78 59.4114L181.619 59.4525C181.661 59.3056 181.748 59.175 181.866 59.0785C182.167 58.844 182.376 58.5118 182.457 58.1395C182.768 57.1856 181.709 56.026 181.17 55.8389C180.865 55.7347 180.541 55.6942 180.22 55.7199C179.898 55.7457 179.585 55.8371 179.3 55.9886C178.829 56.2018 178.196 56.92 177.759 57.4849C177.213 58.2115 176.818 59.0393 176.595 59.9201C176.517 60.2194 176.397 60.6683 176.375 60.8366C176.305 61.146 176.335 61.4695 176.461 61.7606C176.581 61.9885 176.744 62.1915 176.94 62.3591C177.088 62.5033 177.27 62.6095 177.468 62.6688C177.667 62.728 177.877 62.7386 178.08 62.6996C178.55 62.6026 179 62.4281 179.412 62.1833C179.861 61.9215 180.239 61.5399 180.673 61.2407C180.845 61.1209 180.953 60.8666 181.249 60.9339C181.374 60.9648 181.487 61.0309 181.575 61.1245C181.663 61.218 181.723 61.335 181.746 61.4614C181.877 61.8841 182.356 64.1435 182.263 65.1086C181.967 68.0826 181.14 68.5838 179.584 68.7447C178.163 68.8943 176.693 67.9741 177.018 66.5563C177.542 64.2595 180.759 63.0662 181.208 62.7893C181.365 62.6883 181.309 62.5686 181.294 62.5499C181.279 62.5312 181.118 62.4901 181.01 62.52C179.857 62.8043 178.144 63.3205 177.078 64.1734C175.29 65.5987 174.871 67.1436 175.402 68.8195C175.742 69.8968 176.94 70.761 178.447 70.7722C179.322 70.7722 182.121 70.6413 182.899 67.5364C183.348 65.7932 183.198 61.1396 182.36 59.576ZM180.789 60.1371C180.361 60.4713 179.904 60.7667 179.423 61.0199C179.256 61.0821 179.071 61.0821 178.903 61.0199C178.155 60.7843 177.897 60.197 177.822 59.4525C177.8 59.1368 177.853 58.8202 177.976 58.5286C178.137 58.0872 179.663 56.43 180.695 57.4475C180.953 57.7056 181.683 59.4002 180.789 60.1371Z" fill="white"/>
<path fill-rule="evenodd" clip-rule="evenodd" d="M174.594 62.9352C174.781 62.9016 174.965 62.8515 175.144 62.7856C175.275 62.7382 175.4 62.6767 175.518 62.6023C175.665 62.515 175.805 62.4162 175.937 62.3067C176.262 62.0224 175.974 61.379 175.765 61.3117C175.748 61.3048 175.733 61.2947 175.72 61.2818C175.694 61.2518 175.656 61.2219 175.649 61.1845C175.582 60.8104 175.499 60.4064 175.469 60.0136C175.439 59.6208 175.537 58.9288 175.469 58.8353C175.336 58.7862 175.191 58.7823 175.056 58.8243C174.921 58.8662 174.803 58.9516 174.721 59.0672C174.601 59.2729 174.545 59.5086 174.437 59.7181C174.049 60.4266 173.435 60.9849 172.694 61.3042C172.516 61.3919 172.321 61.4376 172.123 61.4376C171.925 61.4376 171.73 61.3919 171.553 61.3042C171.391 61.2296 171.263 61.0973 171.194 60.9333C171.125 60.7693 171.119 60.5854 171.179 60.4176C171.31 59.8154 171.927 58.4986 172.641 58.2442C172.843 58.1732 173.464 58.2255 173.569 58.4088C173.628 58.4904 173.667 58.5848 173.682 58.6842C173.698 58.7837 173.69 58.8854 173.659 58.9812C173.65 59.0221 173.651 59.0647 173.664 59.1048C173.676 59.1448 173.699 59.1809 173.73 59.2094C173.772 59.2249 173.818 59.2303 173.862 59.2251C173.907 59.2199 173.95 59.2043 173.988 59.1794C174.145 59.0477 174.289 58.9012 174.418 58.7418C174.539 58.509 174.614 58.2549 174.639 57.9936C174.655 57.7727 174.637 57.5508 174.586 57.3352C174.536 57.1372 174.449 56.9505 174.328 56.7853C174.081 56.4412 173.232 56.4112 172.548 56.8714C171.835 57.4317 171.266 58.1536 170.887 58.9774C170.54 59.6794 170.27 60.4169 170.083 61.177C169.978 61.559 169.978 61.9621 170.083 62.3441C170.277 62.9651 170.999 63.1222 171.665 62.9614C172.553 62.7219 173.375 62.2816 174.067 61.6745C174.067 61.9626 174.067 62.2057 174.096 62.4451C174.102 62.5746 174.157 62.6971 174.249 62.788C174.341 62.8789 174.464 62.9315 174.594 62.9352Z" fill="white"/>
<path fill-rule="evenodd" clip-rule="evenodd" d="M189.591 61.1321C189.554 61.0647 189.434 61.0722 189.363 61.0984C187.885 61.6221 185.843 61.7231 184.814 60.8852C184.803 60.8735 184.797 60.8581 184.797 60.8422C184.797 60.8262 184.803 60.8109 184.814 60.7991C185.05 60.6121 186.939 60.5149 188.308 58.8203C188.504 58.5856 188.646 58.3101 188.723 58.0137C188.8 57.7174 188.81 57.4077 188.753 57.107C188.663 56.1194 187.462 55.1019 186.108 56.082C181.683 59.2916 183.071 63.0212 185.405 63.0025C186.471 62.9732 187.513 62.676 188.435 62.1384C188.838 61.9487 189.203 61.6876 189.512 61.3678C189.565 61.2892 189.632 61.1994 189.591 61.1321ZM185.543 58.9849C185.585 58.8689 185.585 58.6108 185.457 58.5696C185.33 58.5285 185.181 58.6632 185.083 58.7492C184.925 58.8903 184.775 59.0402 184.634 59.1981C184.787 58.6933 185.086 58.2454 185.495 57.9122C185.903 57.5789 186.402 57.3753 186.927 57.3277C187.097 57.3331 187.258 57.4011 187.38 57.5185C187.728 57.8402 187.653 58.5734 186.924 59.1756C186.516 59.5123 185.85 59.7817 185.626 59.6171C185.401 59.4525 185.439 59.228 185.543 58.9849Z" fill="white"/>
<path fill-rule="evenodd" clip-rule="evenodd" d="M203.125 49.9023C203.124 49.8606 203.115 49.8194 203.098 49.7812C203.081 49.743 203.057 49.7085 203.027 49.6796C202.996 49.6508 202.961 49.6282 202.922 49.6131C202.883 49.5981 202.841 49.5908 202.8 49.5918H202.684C202.567 49.5844 202.452 49.6177 202.357 49.6859C202.262 49.7541 202.194 49.8531 202.164 49.9659C201.622 50.3691 201.134 50.8406 200.712 51.3687C199.972 52.2597 199.299 53.205 198.7 54.1968C198.614 54.3464 198.524 54.4923 198.438 54.6382L198.415 54.6718C198.15 55.1132 197.873 55.5696 197.645 56.0484L197.484 56.3552C195.831 54.7878 194.151 53.0895 193.627 50.3063C193.567 49.9809 193.758 49.7302 193.567 49.6405C193.377 49.5507 192.924 49.7901 192.819 49.8163C192.355 49.9622 192.423 50.4148 192.445 50.7851C192.445 51.5595 192.991 54.9299 196.44 58.4164C196.44 58.4613 196.403 58.5024 196.388 58.5436C196.328 58.6857 196.25 58.8316 196.178 58.97L196.07 59.1757C195.538 60.1542 195.173 61.2151 194.993 62.3143V62.5125C194.973 62.8306 195.015 63.1494 195.116 63.4515C195.176 63.5936 195.307 63.9303 195.644 63.9415C195.756 63.9363 195.866 63.9067 195.966 63.8549C196.066 63.8031 196.153 63.7302 196.222 63.6413C196.291 63.5524 196.34 63.4496 196.365 63.34C196.391 63.2303 196.392 63.1165 196.369 63.0063C196.362 62.9454 196.362 62.8839 196.369 62.823C196.583 61.4576 196.997 60.1314 197.6 58.8877C198.004 58.0872 198.415 57.2979 198.812 56.5385L199.13 55.9325C199.474 55.2629 199.833 54.5746 200.226 53.9087C200.563 53.3666 200.938 52.8491 201.348 52.36C201.64 51.9859 201.951 51.6493 202.268 51.2902C202.515 51.0096 202.759 50.729 203.017 50.4447C203.117 50.2829 203.156 50.0903 203.125 49.9023Z" fill="white"/>
<path fill-rule="evenodd" clip-rule="evenodd" d="M203.78 58.0347C203.809 57.5811 203.657 57.1345 203.357 56.7928C203.18 56.6167 202.969 56.478 202.737 56.3848C202.505 56.2917 202.257 56.2459 202.007 56.2503C201.939 56.2466 201.872 56.2466 201.805 56.2503C201.012 56.3666 200.261 56.6791 199.62 57.1594C199.47 57.2348 199.345 57.3534 199.262 57.5C199.18 57.6466 199.143 57.8146 199.156 57.9823C199.156 58.0924 199.128 58.2006 199.074 58.2966C198.973 58.5023 198.864 58.7043 198.756 58.9101C198.584 59.228 198.412 59.5497 198.262 59.8827C198.004 60.3739 197.885 60.9265 197.919 61.4804C197.952 62.0344 198.137 62.5686 198.453 63.0249C198.618 63.2314 198.827 63.3976 199.066 63.5111C199.304 63.6245 199.565 63.6821 199.83 63.6796C200.009 63.6833 200.187 63.6462 200.349 63.5711C201.187 63.1521 203.252 61.6708 203.533 60.3465C203.67 59.5828 203.753 58.8102 203.78 58.0347ZM200.443 62.1234C200.211 62.1234 200.005 61.9588 199.792 61.6072C199.643 61.3765 199.563 61.1076 199.563 60.8328C199.563 60.5581 199.643 60.2892 199.792 60.0585C199.856 59.95 200.256 59.2505 200.417 59.0522C200.881 58.4911 201.823 58.5958 201.913 58.5996C201.985 58.599 202.056 58.6148 202.121 58.646C202.186 58.6771 202.243 58.7226 202.287 58.7791C202.36 58.9917 202.383 59.2183 202.355 59.4412C202.1 61.7231 200.551 62.1234 200.443 62.1234Z" fill="white"/>
<path d="M32.1708 26.3763C32.1708 26.6194 31.9875 26.7504 31.6359 26.7504L30.6745 26.7167H29.5523C29.1109 26.7167 28.8902 26.8414 28.8902 27.0908L28.9538 43.9243C28.9538 44.2049 28.8415 44.3545 28.6096 44.3695C27.4199 44.4564 26.2252 44.4464 25.0371 44.3396C24.9794 44.3452 24.9211 44.3373 24.8669 44.3165C24.8126 44.2958 24.764 44.2626 24.7248 44.2198C24.6856 44.177 24.6569 44.1256 24.641 44.0698C24.6251 44.014 24.6224 43.9552 24.6331 43.8982L24.5995 27.0646C24.607 27.0137 24.6026 26.9618 24.5865 26.9129C24.5703 26.8641 24.543 26.8197 24.5066 26.7833C24.4703 26.747 24.4259 26.7196 24.377 26.7035C24.3282 26.6874 24.2763 26.6829 24.2254 26.6905H21.9024C21.5694 26.6905 21.4011 26.5521 21.4011 26.3164C21.3567 25.9616 21.3367 25.6041 21.3412 25.2466C21.2944 24.786 21.3146 24.321 21.4011 23.8662C21.4871 23.4136 21.6742 23.1891 21.9697 23.1891C24.5583 23.1717 27.7854 23.1717 31.6509 23.1891C31.9389 23.1891 32.096 23.3425 32.1185 23.6567C32.1708 24.7677 32.1708 25.6655 32.1708 26.3763Z" fill="white"/>
<path d="M42.3082 44.1415C42.3082 44.351 42.1436 44.4632 41.807 44.4819C39.1768 44.6038 36.542 44.5851 33.9139 44.4258C33.6857 44.4258 33.5735 44.2462 33.5735 43.932V23.5671C33.5735 23.3763 33.6857 23.2791 33.9139 23.2791C35.5224 23.2641 38.1223 23.2728 41.7135 23.3052C42.0464 23.3052 42.2147 23.41 42.2147 23.6195V25.026C42.2147 25.8452 42.1848 26.3615 42.1848 26.5784C42.1848 26.7954 42.0726 26.9039 41.8444 26.9039H38.2682C37.954 26.9039 37.7968 27.0012 37.7968 27.1919C37.7968 27.2817 37.7968 27.8952 37.7669 29.0623C37.7445 30.0349 37.7445 30.7681 37.7669 31.2544C37.7669 31.4452 37.8904 31.5574 38.141 31.5911C39.1023 31.6555 40.0666 31.6643 41.0289 31.6173C41.302 31.6173 41.4441 31.722 41.4666 31.9315C41.4853 32.2457 41.4666 32.8256 41.4329 33.6822C41.3917 34.6698 41.3693 35.2533 41.3693 35.4254C41.3693 35.6686 41.2571 35.7995 41.0251 35.7995H38.2046C37.9988 35.7995 37.8717 35.9304 37.8305 36.1736C37.7093 37.5418 37.6881 38.9171 37.7669 40.2885C37.7669 40.5092 37.954 40.6401 38.3318 40.6625H41.777C42.11 40.6625 42.2783 40.7748 42.2783 41.0029C42.2733 42.397 42.2833 43.4432 42.3082 44.1415Z" fill="white"/>
<path d="M55.2178 23.7951C55.1979 22.8899 55.1468 29.5397 55.0645 43.7448C55.0645 44.1974 54.8924 44.4518 54.5595 44.4929C53.5094 44.6352 52.4449 44.6352 51.3947 44.4929C51.2342 44.486 51.0795 44.4304 50.9512 44.3335C50.823 44.2366 50.7272 44.1031 50.6765 43.9505C49.9882 41.3345 49.1814 38.3805 48.2562 35.0886C48.1739 34.8267 48.0467 34.7145 47.8821 34.7145C47.7175 34.7145 47.6951 34.8978 47.6951 35.2607V38.9453C47.6764 41.0215 47.6614 42.6338 47.6614 43.8084C47.6614 44.1563 47.3996 44.3732 46.8796 44.4593C46.4149 44.5357 45.9432 44.5608 45.4731 44.5341L44.1862 44.5116C44.1015 44.5276 44.0142 44.5237 43.9312 44.5003C43.8482 44.4768 43.7718 44.4344 43.708 44.3764C43.6442 44.3183 43.5947 44.2463 43.5634 44.1659C43.5322 44.0855 43.52 43.999 43.5279 43.9131C43.4381 41.4641 43.4181 37.7994 43.468 32.9189C43.5129 28.1806 43.5865 25.1705 43.6887 23.8886C43.7336 23.4734 43.8645 23.2565 44.0965 23.2415C44.5977 23.2415 45.2748 23.2415 46.1352 23.2415L47.826 23.2901C48.1178 23.2901 48.3011 23.4734 48.3872 23.84C49.4296 28.0447 50.1615 30.7567 50.583 31.9762C50.7476 32.4476 50.8823 32.6795 50.9907 32.6795C51.0992 32.6795 51.1853 32.4139 51.1441 31.8678C51.0618 30.4587 51.0207 27.7741 51.0207 23.8138C51.0207 23.4136 51.2302 23.2228 51.6454 23.2415H54.5595C54.9897 23.2377 55.2178 23.4285 55.2178 23.7951Z" fill="white"/>
<path d="M68.1274 23.7951C68.0974 22.8948 68.0451 29.5447 67.9702 43.7447C67.9702 44.1974 67.8019 44.4517 67.469 44.4929C66.4189 44.6351 65.3544 44.6351 64.3043 44.4929C64.1433 44.4856 63.9883 44.43 63.8595 44.3332C63.7307 44.2364 63.6341 44.103 63.5823 43.9505C62.894 41.3344 62.0897 38.3804 61.1695 35.0885C61.0872 34.8267 60.9637 34.7144 60.7954 34.7144C60.6271 34.7144 60.6084 34.8977 60.6084 35.2606V38.9453C60.5859 41.0214 60.5747 42.6337 60.5747 43.8083C60.5747 44.1575 60.3128 44.3744 59.7891 44.4592C59.3244 44.5357 58.8528 44.5608 58.3826 44.534L57.0958 44.5116C57.0112 44.5277 56.924 44.5239 56.8411 44.5004C56.7583 44.4769 56.682 44.4345 56.6185 44.3763C56.5549 44.3182 56.5058 44.2461 56.475 44.1657C56.4442 44.0852 56.4326 43.9987 56.4411 43.9131C56.3563 41.4865 56.3351 37.8268 56.3775 32.9338C56.4174 28.1955 56.4897 25.1854 56.5945 23.9035C56.6394 23.4883 56.774 23.2713 57.0022 23.2564C57.5035 23.2564 58.1806 23.2564 59.041 23.2564L60.7318 23.305C61.0236 23.305 61.2106 23.4883 61.2929 23.8549C62.3403 28.0596 63.0723 30.7716 63.4888 31.9911C63.6571 32.4625 63.7918 32.6944 63.8965 32.6944C64.0013 32.6944 64.0948 32.4288 64.0499 31.8827C63.9676 30.4736 63.9277 27.789 63.9302 23.8287C63.9302 23.4285 64.1359 23.2377 64.5549 23.2564H67.469C67.9066 23.2377 68.1274 23.4285 68.1274 23.7951Z" fill="white"/>
<path d="M73.8881 43.745C73.8881 44.164 73.7235 44.4071 73.3868 44.4932C72.888 44.6129 71.792 44.6129 70.0987 44.4932C69.6797 44.4558 69.4702 44.1789 69.4702 43.6552C69.5101 37.7822 69.5213 31.2445 69.5039 24.0422C69.5035 23.8809 69.5287 23.7206 69.5787 23.5672C69.6385 23.3577 69.7508 23.2529 69.9228 23.2529C70.8206 23.2529 71.9591 23.2704 73.3382 23.3053C73.6898 23.339 73.8769 23.5859 73.8993 24.0535L73.8881 43.745Z" fill="white"/>
<path d="M86.0046 39.5215C86.0046 41.0502 85.5358 42.2585 84.5981 43.1463C83.6604 44.0341 82.3336 44.478 80.6179 44.478C79.2153 44.5078 77.8557 43.9929 76.8247 43.0416C76.2798 42.5366 75.8538 41.917 75.5776 41.2274C75.3014 40.5377 75.1817 39.7954 75.2274 39.0539C75.2274 38.7746 75.2386 38.3219 75.261 37.696C75.2835 37.3219 75.3957 37.1461 75.6052 37.1461C75.8147 37.1461 76.4057 37.1461 77.3746 37.0937C78.3434 37.0413 78.9308 37.0339 79.1477 37.0339C79.3647 37.0339 79.4582 37.262 79.4582 37.7147V38.9903C79.4582 40.2372 79.866 40.8607 80.6814 40.8607C81.3274 40.8607 81.6715 40.4342 81.7139 39.5813L81.7775 38.1262C81.7775 37.6885 81.2575 37.0039 80.1503 36.1174C78.2799 34.5836 77.2661 33.727 77.0791 33.5325C75.9718 32.4551 75.4181 31.4725 75.4181 30.5847V28.3851C75.4181 26.799 75.867 25.5421 76.7686 24.6032C77.7262 23.5782 79.1253 23.0483 80.9657 23.0134C82.4621 22.9934 83.6616 23.4273 84.5644 24.3151C84.9872 24.7537 85.3164 25.2736 85.5318 25.8434C85.7473 26.4132 85.8445 27.0209 85.8176 27.6295V30.2106C85.8176 30.4725 85.7053 30.6109 85.4734 30.6259C84.337 30.6852 83.1982 30.6852 82.0618 30.6259C81.7887 30.6259 81.6503 30.4987 81.6503 30.2518C81.6316 29.8515 81.6503 29.1595 81.7139 28.1644C81.7322 27.7884 81.6509 27.4142 81.4782 27.0796C81.4263 26.9317 81.3318 26.8024 81.2067 26.7079C81.0816 26.6134 80.9314 26.5579 80.775 26.5484C79.9595 26.5484 79.5517 27.1245 79.5517 28.2692V29.6271C79.5517 30.1658 80.1066 30.9301 81.2164 31.9202L84.3474 34.6846C85.4522 35.8318 86.0046 36.8493 86.0046 37.7371V39.5215Z" fill="white"/>
<path d="M168.886 14.6154C168.863 14.5705 168.773 14.5705 168.728 14.563H168.515C168.556 14.563 168.642 14.4956 168.627 14.4732C168.575 14.3834 168.414 14.4208 168.336 14.4508C168.197 14.4956 168.074 14.5966 167.943 14.6415C167.985 14.5998 168.02 14.5519 168.048 14.4994C168.048 14.4395 168.014 14.4133 167.943 14.3984C167.748 14.346 167.569 14.5779 167.445 14.6565C167.413 14.678 167.378 14.6944 167.341 14.7051C167.341 14.6789 167.363 14.6303 167.367 14.6004C167.371 14.5705 167.457 14.4395 167.445 14.3423C167.434 14.245 167.329 14.1103 167.24 14.1141C167.15 14.1178 167.112 14.245 167.023 14.3086C167.023 14.3086 166.974 14.3834 166.952 14.3872C166.929 14.3909 166.952 14.2749 166.952 14.2525C166.922 14.0505 166.873 13.7699 166.622 13.8784C166.544 13.9457 166.592 14.0467 166.592 14.1253C166.592 14.2899 166.574 14.4994 166.566 14.7089C166.585 14.9727 166.549 15.2375 166.462 15.487C166.436 15.5311 166.406 15.5724 166.372 15.6104C166.34 15.6244 166.312 15.6448 166.289 15.6703C166.178 15.8087 166.077 15.9549 165.986 16.1079C165.923 16.2576 165.728 16.482 165.762 16.6242C165.268 17.2002 164.804 17.7651 164.266 18.3262C164.071 18.5141 163.927 18.7483 163.847 19.007C163.847 19.0931 163.682 19.3213 163.671 19.4185C163.618 19.5575 163.55 19.6905 163.469 19.8151C163.282 20.1101 163.077 20.3937 162.855 20.6642C162.744 20.7712 162.618 20.8619 162.481 20.9336L162.074 21.3675C161.981 21.2329 161.876 21.1077 161.759 20.9934C161.639 20.8497 161.472 20.7519 161.288 20.7166C161.121 20.6785 160.951 20.6572 160.779 20.653C160.622 20.6413 160.465 20.6413 160.308 20.653C160.089 20.6978 159.886 20.8013 159.721 20.9523C159.617 21.0647 159.529 21.1905 159.459 21.3263C159.384 21.4535 159.227 21.7752 159.216 21.7977C159.204 21.8201 159.249 22.0259 159.238 22.0633C159.191 22.1693 159.149 22.278 159.115 22.3887C159.115 22.4598 159.115 22.7179 159.092 22.8039C159.064 22.9421 159.045 23.0821 159.036 23.2229C159.022 23.3259 159.022 23.4304 159.036 23.5334C159.061 23.5618 159.092 23.5848 159.126 23.6007C159.172 23.6423 159.214 23.6873 159.253 23.7354C159.304 23.8051 159.344 23.882 159.373 23.9636C159.4 24.0646 159.423 24.167 159.44 24.2703C159.423 24.3206 159.401 24.3693 159.376 24.4162C159.287 24.5817 159.159 24.7229 159.002 24.8277C158.884 24.9014 158.759 24.9628 158.628 25.011C158.501 25.0484 158.325 25.011 158.191 25.0484C158.067 24.9549 158.034 24.8015 157.955 24.6743C157.8 24.4308 157.674 24.1696 157.581 23.8963C157.379 23.5222 157.244 23.2042 157.083 22.8414C157.05 22.7553 157.016 22.6768 156.982 22.5982C156.949 22.5196 156.982 22.5309 156.982 22.5009C156.866 22.2166 156.743 21.981 156.631 21.6929C156.631 21.6929 156.567 21.6929 156.563 21.663C156.544 21.5878 156.529 21.5116 156.518 21.4348C156.513 21.3628 156.5 21.2914 156.481 21.2216C156.46 21.1283 156.45 21.0329 156.451 20.9373C156.43 20.6404 156.376 20.3468 156.29 20.0619C156.232 19.9603 156.18 19.8554 156.133 19.7477C156.052 19.4751 156.026 19.1888 156.058 18.906C156.058 18.8499 156.058 18.7639 156.085 18.6704C156.118 18.517 156.197 18.4048 156.167 18.2963C156.137 18.1878 156.167 18.2364 156.167 18.1392C156.187 18.0099 156.225 17.8841 156.279 17.7651C156.421 17.4079 156.624 17.0776 156.878 16.7888C157.173 16.396 157.405 16.0406 157.674 15.6665C157.914 15.3392 158.127 14.9926 158.31 14.6303C158.564 14.1634 158.702 13.642 158.711 13.1105C158.72 12.579 158.6 12.0532 158.363 11.5778C157.723 10.4556 156.223 10.4032 155.265 11.1364C154.42 11.7836 154.308 12.6814 154.394 13.6577C154.429 14.0233 154.484 14.3867 154.558 14.7463C154.704 15.4159 155.067 16.0294 155.265 16.684C155.362 16.9056 155.444 17.1329 155.512 17.3648C155.565 17.5752 155.588 17.7916 155.583 18.0083C155.583 18.0943 155.486 18.1541 155.464 18.2402C155.413 18.464 155.383 18.6918 155.374 18.921C155.325 19.1998 155.245 19.4721 155.134 19.7328C155.086 19.8599 155.003 19.9871 154.981 20.0807C154.959 20.1742 155.011 20.3275 154.981 20.4547C154.959 20.6792 154.884 20.6455 154.981 20.8513C155.078 21.057 155.228 21.2253 155.333 21.4124C155.424 21.5791 155.492 21.7579 155.535 21.9436C155.535 21.966 155.497 21.9922 155.505 22.0109C155.512 22.0296 155.542 22.1343 155.553 22.1979C155.598 22.3513 155.666 22.486 155.71 22.6356C155.74 22.7254 155.767 22.8114 155.793 22.8975C155.819 22.9835 155.849 22.9349 155.86 22.9648C155.942 23.2903 155.991 23.6344 156.062 23.9673C156.114 24.4336 156.19 24.8968 156.29 25.3552C156.373 25.7293 156.417 26.0697 156.664 26.1931C156.825 26.2156 156.967 26.1407 157.005 26.3053C157.027 26.4101 156.934 26.4699 156.922 26.5747C156.911 26.6794 156.922 26.9824 156.922 27.1246C156.941 27.4201 157.065 27.4986 157.248 27.6782C157.459 27.6385 157.676 27.6385 157.888 27.6782C157.845 28.2278 157.719 28.7676 157.514 29.2793C157.379 29.7132 157.379 30.2631 157.218 30.6746C157.173 30.7718 157.091 31.0487 157.05 31.1646C156.971 31.4487 156.927 31.7414 156.919 32.0362C156.919 32.2756 157.05 32.4515 157.061 32.6535C157.05 32.8689 157.02 33.0829 156.971 33.2931C156.878 33.6223 156.717 34.0413 156.597 34.3667C156.477 34.6922 156.361 35.0663 156.245 35.4067C156.129 35.7471 155.841 36.1548 155.845 36.5701C155.845 36.716 155.954 36.8731 155.957 36.9816C155.935 37.1396 155.885 37.2927 155.811 37.4342C155.744 37.5951 155.677 37.7522 155.624 37.8831C155.502 38.1551 155.422 38.4439 155.385 38.7397C155.385 38.8707 155.355 39.0353 155.359 39.1624C155.363 39.2896 155.292 39.428 155.292 39.5702C155.292 39.7984 155.378 40.0341 155.378 40.2735C155.344 40.5391 155.324 40.8063 155.318 41.074C155.39 41.5176 155.516 41.9508 155.692 42.3646C155.759 42.5441 155.744 42.6302 155.811 42.7648C155.918 42.9489 155.995 43.1482 156.04 43.3559C156.04 43.4419 156.04 43.4644 156.066 43.5691C156.085 43.66 156.109 43.7499 156.137 43.8384C156.197 44.0143 156.208 44.0704 156.264 44.235C156.384 44.609 156.163 44.6464 156.159 44.8896C156.159 44.9831 156.212 45.0841 156.208 45.2001C156.208 45.5068 156.152 45.7836 156.163 46.1016C156.163 46.4757 156.073 46.9059 156.126 47.2239C156.15 47.3939 156.235 47.5494 156.365 47.6615C156.707 47.7174 157.056 47.7174 157.398 47.6615C157.628 47.5753 157.832 47.4295 157.989 47.2388C158.092 47.0465 158.147 46.8322 158.149 46.6141C158.178 46.4169 158.23 46.2236 158.303 46.038C158.416 45.8422 158.5 45.6303 158.55 45.4096C158.557 45.2063 158.513 45.0044 158.423 44.8223C158.322 44.6567 158.24 44.4812 158.176 44.2986C158.138 44.2013 157.918 44.1676 157.891 44.0666C157.865 43.9656 157.779 43.8796 157.745 43.7973C157.688 43.6363 157.62 43.4789 157.543 43.3259C157.444 43.1522 157.369 42.966 157.319 42.7723C157.28 42.5174 157.268 42.2592 157.282 42.0017C157.318 41.7977 157.342 41.5915 157.353 41.3845C157.33 40.8832 157.132 40.5802 157.113 40.1238C157.152 39.9263 157.233 39.7397 157.353 39.5777C157.442 39.3944 157.528 39.2634 157.626 39.1026C157.786 38.78 157.982 38.4764 158.209 38.1973C158.287 38.1158 158.377 38.0464 158.475 37.9916C158.61 37.9392 158.778 37.9916 158.898 37.9317C158.971 37.8778 159.041 37.819 159.107 37.7559C159.181 37.6956 159.251 37.6306 159.317 37.5614C159.429 37.4192 159.429 37.1536 159.657 37.1013C159.728 37.3669 159.657 37.7297 159.792 37.9916C159.844 38.1038 159.964 38.1449 159.986 38.2721C160.009 38.3993 159.941 38.4779 159.919 38.5938C159.827 38.9922 159.771 39.3977 159.751 39.8059C159.751 40.0752 159.627 40.3558 159.642 40.6139C159.686 40.9793 159.759 41.3408 159.859 41.695C159.877 41.9743 159.916 42.2518 159.975 42.5254C159.996 42.614 159.996 42.7062 159.975 42.7948C159.947 42.9213 159.912 43.0462 159.87 43.1688C159.852 43.2212 159.87 43.3372 159.81 43.3895C159.659 43.5438 159.555 43.7387 159.511 43.9507C159.296 44.2127 159.139 44.5175 159.051 44.8447C158.968 45.1399 158.871 45.4308 158.759 45.7163C158.647 45.91 158.546 46.1098 158.456 46.3148C158.437 46.3718 158.43 46.4322 158.436 46.492C158.441 46.5518 158.46 46.6098 158.489 46.6621C158.519 46.7143 158.559 46.7598 158.608 46.7953C158.656 46.8309 158.712 46.8558 158.77 46.8685C159.127 46.9289 159.493 46.886 159.825 46.745C159.967 46.6797 160.1 46.5981 160.222 46.5019L160.577 46.24C160.716 46.1428 160.731 46.0305 160.783 45.8921C160.906 45.6116 161.007 45.3909 161.123 45.0991C161.235 44.8759 161.327 44.643 161.396 44.4033C161.401 44.2421 161.394 44.0808 161.374 43.9207C161.374 43.7412 161.408 43.4868 161.426 43.2998C161.455 43.0315 161.517 42.7677 161.61 42.5142C161.805 42.1996 161.882 41.8255 161.827 41.4593C161.808 41.3807 161.827 41.3059 161.804 41.2087C161.74 40.9439 161.704 40.673 161.696 40.4006C161.727 40.2266 161.782 40.0579 161.86 39.8994C161.89 39.8133 161.935 39.731 161.965 39.6413C162.07 39.3134 162.195 38.9923 162.339 38.6799C162.683 38.6088 162.62 38.0701 162.676 37.7746C162.732 37.4791 162.818 37.1723 162.874 36.8693C162.915 36.6449 162.938 36.4167 162.971 36.1885C163.001 36.0389 163.039 35.8892 163.069 35.7396C163.069 35.6723 163.125 35.6199 163.14 35.5526C163.155 35.4852 163.14 35.3955 163.14 35.3169C163.171 35.2437 163.199 35.1688 163.222 35.0925C163.23 34.9679 163.23 34.843 163.222 34.7184C163.244 34.3443 163.222 33.9403 163.222 33.5475C163.222 33.2969 163.222 33.0425 163.222 32.7994C163.222 32.5562 163.121 32.2233 163.125 31.9427C163.128 31.6622 163.349 31.636 163.375 31.4789C163.387 31.1769 163.379 30.8746 163.353 30.5736C163.353 29.9152 163.222 29.3242 163.173 28.6583C163.136 28.3455 163.119 28.0306 163.125 27.7156C163.125 27.6371 163.17 27.566 163.181 27.4874C163.192 27.4089 163.181 27.3415 163.181 27.2705C163.181 27.1994 163.237 27.1246 163.252 27.0572C163.265 26.8267 163.265 26.5957 163.252 26.3652C163.233 26.1374 163.233 25.9084 163.252 25.6806C163.274 25.6053 163.285 25.5272 163.286 25.4487C163.286 25.3739 163.256 25.2991 163.244 25.2317C163.247 25.1549 163.257 25.0784 163.274 25.0035C163.301 24.7716 163.338 24.6295 163.36 24.4349C163.36 24.3452 163.323 24.2591 163.327 24.1843C163.33 24.1095 163.424 24.0459 163.446 23.9823C163.495 23.8065 163.525 23.6456 163.555 23.4885C163.648 23.4062 163.633 23.3127 163.682 23.208C163.809 22.991 164.21 22.7441 164.269 22.5271C164.329 22.3102 164.176 22.1194 164.172 21.9211C164.189 21.7856 164.222 21.6525 164.269 21.5246C164.269 21.4348 164.269 21.3413 164.269 21.2665C164.305 21.1424 164.361 21.025 164.434 20.9186C164.509 20.7877 164.561 20.653 164.632 20.5445C164.703 20.436 164.819 20.2078 164.924 20.0582C165.602 19.1474 166.195 18.1756 166.693 17.1554C166.723 17.1554 166.742 17.1554 166.761 17.1292C166.874 16.9914 166.977 16.8451 167.068 16.6915C167.172 16.5119 167.277 16.3885 167.352 16.2314C167.352 16.2089 167.352 16.2314 167.352 16.1977C167.467 16.003 167.591 15.8145 167.726 15.6328C167.774 15.5662 167.827 15.5025 167.883 15.4421C167.94 15.3731 168.007 15.3126 168.081 15.2625C168.181 15.1604 168.29 15.0677 168.407 14.9857C168.468 14.9518 168.526 14.9143 168.583 14.8735C168.777 14.7986 168.945 14.7351 168.886 14.6154ZM155.931 17.3125C155.749 16.7199 155.519 16.1432 155.243 15.588C155.83 16.0481 156.316 16.0406 157.143 15.7226C156.975 15.8947 155.931 17.3125 155.931 17.3125Z" fill="white"/>
<path d="M176.659 23.7316C176.637 22.8263 176.583 29.4775 176.498 43.685C176.498 44.1377 176.334 44.3883 176.001 44.4332C174.949 44.5717 173.884 44.5717 172.832 44.4332C172.671 44.4249 172.517 44.3684 172.389 44.2709C172.261 44.1735 172.165 44.0397 172.114 43.887C171.421 41.2809 170.616 38.3245 169.701 35.0176C169.615 34.7595 169.495 34.6435 169.327 34.6435C169.159 34.6435 169.136 34.8268 169.136 35.1897V38.8781C169.114 40.9505 169.104 42.5715 169.106 43.7411C169.106 44.0853 168.845 44.3023 168.325 44.3883C167.858 44.4683 167.383 44.4947 166.911 44.4668C166.162 44.4668 165.732 44.4444 165.627 44.4444C165.543 44.4596 165.456 44.4551 165.373 44.4314C165.291 44.4076 165.214 44.3652 165.151 44.3073C165.087 44.2495 165.038 44.1778 165.006 44.0978C164.975 44.0178 164.962 43.9316 164.969 43.8459C164.887 41.4144 164.867 37.7534 164.909 32.8629C164.952 28.1246 165.024 25.1157 165.126 23.8364C165.171 23.4211 165.302 23.2004 165.534 23.1855C166.035 23.1855 166.712 23.1855 167.573 23.1855L169.263 23.2341C169.555 23.2341 169.742 23.4211 169.828 23.784C170.871 27.9936 171.601 30.7057 172.02 31.9202C172.185 32.3916 172.32 32.6272 172.424 32.6272C172.574 32.6272 172.626 32.3542 172.582 31.8155C172.494 30.3865 172.451 27.6931 172.451 23.7354C172.451 23.3314 172.664 23.1443 173.079 23.1593H175.997C176.438 23.1929 176.659 23.3688 176.659 23.7316Z" fill="white"/>
<path d="M188.716 26.3128C188.716 26.5597 188.54 26.6869 188.184 26.6869C188.039 26.6869 187.724 26.6869 187.245 26.6607H186.123C185.686 26.6607 185.469 26.7916 185.469 27.0572L185.528 43.8908C185.528 44.1676 185.416 44.3173 185.184 44.3322C183.995 44.4207 182.8 44.4131 181.612 44.3098C181.554 44.3125 181.497 44.3025 181.444 44.2806C181.39 44.2586 181.343 44.2252 181.304 44.1827C181.265 44.1403 181.236 44.0897 181.218 44.0348C181.201 43.9798 181.196 43.9217 181.204 43.8646L181.174 27.0311C181.182 26.9802 181.177 26.9282 181.161 26.8794C181.145 26.8306 181.118 26.7862 181.081 26.7498C181.045 26.7134 181.001 26.6861 180.952 26.67C180.903 26.6538 180.851 26.6494 180.8 26.657H178.481C178.148 26.657 177.983 26.5223 177.983 26.2829C177.933 25.9286 177.912 25.5708 177.92 25.213C177.872 24.7511 177.893 24.2846 177.983 23.8289C178.066 23.3763 178.253 23.1518 178.544 23.1518C181.136 23.1369 184.363 23.1369 188.226 23.1518C188.521 23.1518 188.674 23.309 188.697 23.6194C188.732 24.7068 188.738 25.6046 188.716 26.3128Z" fill="white"/>
<path d="M142.558 32.8442C142.558 34.116 141.889 35.0986 140.553 35.7919C139.574 36.2929 138.488 36.5495 137.388 36.5401C137.115 36.5401 136.98 36.6635 136.98 36.9142C136.98 38.4928 136.959 40.8619 136.917 44.0217C136.917 44.3022 136.804 44.4481 136.573 44.4668C135.466 44.5361 134.357 44.5361 133.251 44.4668C132.981 44.4481 132.847 44.3359 132.847 44.1264L132.798 23.5333C132.798 23.3425 132.978 23.2378 133.329 23.2228C134.187 23.1854 135.576 23.1929 137.497 23.2453C138.688 23.2351 139.859 23.5521 140.882 24.1618C142.004 24.8015 142.573 25.6132 142.573 26.5821L142.558 32.8442ZM138.817 29.9002C138.862 29.0515 138.8 28.2005 138.63 27.3676C138.605 27.21 138.544 27.0603 138.451 26.9305C138.358 26.8006 138.236 26.6941 138.095 26.6195L137.437 26.5634C137.28 26.5567 137.124 26.5405 136.969 26.5147C136.926 26.508 136.882 26.5144 136.843 26.5331C136.803 26.5518 136.77 26.5819 136.748 26.6195C136.718 26.6598 136.698 26.706 136.687 26.7551C136.677 26.8042 136.677 26.8549 136.689 26.9038C136.689 28.2056 136.689 30.0984 136.722 32.5673C136.722 32.7207 136.823 32.8329 137.033 32.904C137.167 32.9369 137.308 32.9278 137.437 32.8778C137.617 32.8931 137.799 32.8674 137.968 32.8026C138.137 32.7379 138.289 32.6357 138.413 32.5038C138.66 32.1047 138.798 31.2369 138.828 29.9002H138.817Z" fill="white"/>
<path d="M153.575 40.3033C153.575 43.2261 151.905 44.6862 148.566 44.6837C146.82 44.6837 145.573 44.3184 144.825 43.5877C144.114 42.9106 143.755 41.8145 143.755 40.3033V28.2242C143.755 26.3538 144.219 24.9847 145.135 24.1879C145.884 23.5221 147.024 23.1929 148.554 23.1929C150.178 23.1929 151.371 23.4809 152.123 24.057C153.083 24.7877 153.563 26.0733 153.563 27.9138L153.575 40.3033ZM149.598 39.1324V28.5684C149.598 27.5434 149.303 27.0272 148.719 27.0272C148.071 27.0272 147.748 27.5497 147.75 28.5946V39.1548C147.75 39.7309 147.821 40.09 147.967 40.2397C148.178 40.4082 148.447 40.4875 148.715 40.4604C149.303 40.4604 149.598 40.0264 149.598 39.1324Z" fill="white"/>
<path d="M109.108 14.7874C105.345 14.7866 101.666 15.9018 98.5366 17.9919C95.4073 20.0821 92.9682 23.0532 91.5276 26.5296C90.087 30.0061 89.7097 33.8316 90.4434 37.5225C91.1771 41.2133 92.9888 44.6037 95.6494 47.2649C98.3101 49.9261 101.7 51.7385 105.391 52.4729C109.082 53.2073 112.907 52.8307 116.384 51.3908C119.861 49.9509 122.832 47.5124 124.923 44.3835C127.014 41.2547 128.13 37.5761 128.13 33.813C128.13 28.7678 126.126 23.9291 122.558 20.3612C118.991 16.7933 114.153 14.7883 109.108 14.7874ZM96.3553 33.813C96.3536 31.8591 96.803 29.9312 97.6683 28.1794C96.6583 33.54 102.157 36.1922 100.414 43.1426C99.1319 41.9506 98.1096 40.5067 97.4112 38.9013C96.7128 37.296 96.3533 35.5637 96.3553 33.813ZM101.75 44.2237C102.808 34.1534 96.4526 34.1422 99.4265 25.5197C101.515 23.071 104.454 21.5052 107.652 21.138C110.849 20.7708 114.067 21.6294 116.657 23.5408C117.263 31.8566 110.338 33.0649 117.244 43.6251C115.087 45.415 112.399 46.4436 109.598 46.5518C106.797 46.66 104.039 45.8417 101.75 44.2237ZM118.426 42.5066C110.701 34.0674 118.579 30.3827 118.052 24.7304C120.42 27.0597 121.784 30.2218 121.854 33.5424C121.924 36.8631 120.694 40.0798 118.426 42.5066Z" fill="white"/>
</svg>
