<?xml version="1.0" standalone="no"?>
<!DOCTYPE svg PUBLIC "-//W3C//DTD SVG 20010904//EN"
 "http://www.w3.org/TR/2001/REC-SVG-20010904/DTD/svg10.dtd">
<svg version="1.0" xmlns="http://www.w3.org/2000/svg"
 width="1152.000000pt" height="1152.000000pt" viewBox="0 0 1152.000000 1152.000000"
 preserveAspectRatio="xMidYMid meet">
<metadata>
Created by potrace 1.14, written by Peter Selinger 2001-2017
</metadata>
<g transform="translate(0.000000,1152.000000) scale(0.100000,-0.100000)"
fill="#000000" stroke="none">
<path d="M10808 10356 c-11 -12 -215 -219 -973 -991 -108 -110 -352 -360 -543
-555 -191 -195 -937 -946 -1659 -1669 -721 -723 -1309 -1319 -1307 -1325 4
-10 487 -491 1624 -1616 186 -184 693 -687 1127 -1117 433 -430 937 -928 1118
-1108 182 -179 398 -394 481 -477 l151 -150 210 211 209 212 -266 264 c-146
145 -420 417 -610 605 -190 188 -689 683 -1110 1100 -421 417 -927 918 -1125
1115 -198 196 -421 416 -496 490 -75 74 -133 137 -131 140 3 3 1 5 -5 5 -5 0
-85 75 -177 166 l-168 167 956 956 c751 751 1426 1430 1426 1435 0 1 93 96
913 930 216 219 481 489 589 600 109 111 198 204 198 207 0 3 -69 74 -152 157
-280 276 -265 263 -280 248z"/>
<path d="M119 10188 c-3 -121 0 -558 4 -565 4 -6 784 -10 1979 -10 1809 -1
2046 -3 2117 -17 13 -3 49 -8 80 -12 31 -3 66 -10 79 -15 12 -5 26 -8 30 -8 4
1 10 0 15 -1 9 -3 13 -4 57 -14 124 -28 366 -118 450 -166 8 -5 43 -23 78 -41
34 -18 62 -37 62 -41 0 -4 5 -8 10 -8 10 0 60 -32 86 -55 6 -5 26 -21 45 -34
99 -71 329 -335 356 -409 4 -9 10 -19 13 -22 12 -9 87 -172 114 -248 26 -74
60 -200 71 -262 3 -19 8 -48 11 -65 21 -118 28 -222 28 -385 0 -165 -6 -251
-24 -345 -5 -27 -12 -61 -14 -75 -3 -14 -5 -25 -6 -25 -1 0 -4 -12 -6 -27 -2
-14 -14 -53 -25 -85 -11 -32 -21 -62 -23 -68 -14 -45 -73 -171 -98 -207 -11
-16 -16 -28 -11 -28 4 0 0 -5 -9 -11 -10 -5 -18 -15 -18 -21 0 -20 -103 -144
-196 -235 -216 -212 -581 -394 -934 -467 -29 -6 -64 -13 -105 -22 -16 -4 -41
-8 -55 -9 -14 -2 -43 -5 -65 -9 -22 -3 -65 -9 -95 -12 -30 -4 -892 -7 -1915
-8 l-1860 -1 -1 -266 c-1 -147 -5 -272 -8 -278 -4 -6 -4 -11 1 -11 10 0 10
-91 -1 -108 -4 -6 -4 -12 1 -12 4 0 8 -13 8 -30 0 -16 -4 -30 -8 -30 -5 0 -5
-5 -1 -11 9 -16 10 -101 1 -117 -5 -6 -5 -12 0 -12 10 0 10 -91 -1 -108 -4 -6
-4 -12 1 -12 4 0 8 -95 8 -210 0 -116 -4 -210 -8 -210 -5 0 -5 -5 -1 -11 9
-16 10 -101 1 -117 -5 -6 -5 -12 0 -12 10 0 10 -91 -1 -108 -4 -6 -4 -12 1
-12 10 0 10 -91 -1 -108 -4 -6 -4 -12 1 -12 10 0 10 -91 -1 -108 -4 -6 -4 -12
1 -12 10 0 9 -533 -1 -549 -4 -6 -4 -11 1 -11 10 0 10 -91 -1 -108 -4 -6 -4
-12 1 -12 4 0 8 -13 8 -30 0 -16 -4 -30 -8 -30 -5 0 -5 -5 -1 -11 9 -16 10
-101 1 -117 -5 -6 -5 -12 0 -12 10 0 10 -91 -1 -108 -4 -6 -4 -12 1 -12 4 0 8
-95 8 -210 0 -116 -4 -210 -8 -210 -5 0 -5 -5 -1 -11 9 -16 10 -101 1 -117 -5
-6 -5 -12 0 -12 10 0 10 -91 -1 -108 -4 -6 -4 -12 1 -12 10 0 10 -91 -1 -108
-4 -6 -4 -12 1 -12 10 0 10 -91 -1 -108 -4 -6 -4 -12 1 -12 10 0 9 -533 -1
-549 -4 -6 -4 -11 1 -11 10 0 10 -91 -1 -108 -4 -6 -3 -12 2 -12 5 0 7 -13 4
-28 l-4 -28 299 0 299 0 -1 1984 c0 1091 4 1986 8 1989 4 2 715 5 1580 5 1544
0 1673 3 1832 32 17 3 47 8 69 11 21 4 48 9 60 12 11 2 30 6 41 8 31 5 175 42
241 61 32 10 61 18 64 19 13 2 87 27 105 35 25 12 138 54 145 55 3 0 53 24
112 53 59 28 112 52 117 52 6 0 11 4 11 9 0 5 9 13 21 16 11 4 40 20 64 36 24
16 46 29 49 29 4 0 12 5 19 10 7 6 50 38 97 72 124 89 266 219 340 309 19 24
45 54 58 67 12 12 22 26 22 31 0 4 8 16 18 27 108 120 278 476 317 664 2 8 8
35 14 60 19 74 19 76 25 116 4 22 8 53 11 69 43 278 35 643 -21 935 -3 19 -8
42 -9 50 -1 8 -5 22 -7 30 -3 8 -11 40 -18 70 -7 30 -21 82 -32 115 -11 33
-21 67 -23 75 -8 35 -60 162 -101 247 -128 268 -310 502 -539 693 -89 74 -237
180 -253 180 -5 0 -15 7 -23 16 -15 18 -283 151 -379 188 -131 50 -343 114
-437 132 -13 2 -35 6 -50 10 -16 3 -41 7 -58 10 -16 2 -41 7 -55 11 -14 3 -45
7 -70 9 -25 1 -58 6 -75 10 -16 5 -947 10 -2067 11 l-2038 4 -1 -23z"/>
</g>
</svg>
