<svg width="91" height="91" viewBox="0 0 91 91" fill="none" xmlns="http://www.w3.org/2000/svg">
<g clip-path="url(#clip0_597_565)">
<path d="M73.995 11.3063C70.937 15.1983 66.489 17.4223 61.624 17.4223C58.149 17.4223 54.952 16.3103 52.172 14.2253C49.531 12.2793 47.585 9.36026 46.612 6.30226L46.334 5.46826H44.388L44.11 6.30226C43.137 9.49926 41.191 12.2793 38.55 14.2253C35.77 16.3103 32.573 17.4223 29.098 17.4223C24.233 17.4223 19.785 15.1983 16.727 11.3063L14.92 8.80426V51.6163C14.92 60.0953 19.229 68.0183 26.318 72.7443L45.639 85.5323L64.821 72.7443C71.91 68.0183 76.08 60.0953 76.08 51.6163V8.80426L73.995 11.3063ZM30.21 67.0453C24.511 63.2923 21.175 57.0373 21.175 50.2263V28.8203H23.399V50.2263C23.399 56.2033 26.457 61.9023 31.461 65.2383L30.21 67.0453ZM59.539 47.8633H49.948V57.4543H40.774V47.8633H31.183V38.6893H40.774V29.0983H49.948V38.6893H59.539V47.8633Z" fill="white"/>
</g>
<defs>
<clipPath id="clip0_597_565">
<rect width="91" height="91" fill="white"/>
</clipPath>
</defs>
</svg>
