<svg width="85" height="85" viewBox="0 0 85 85" fill="none" xmlns="http://www.w3.org/2000/svg">
<g clip-path="url(#clip0_597_580)">
<path d="M68.5997 27.8058C61.8016 32.1037 56.9168 38.285 54.7399 45.9081C52.5631 53.5312 53.4471 61.3599 56.9505 68.5996C63.7781 64.9785 68.9277 58.65 71.2223 50.6149C73.5168 42.5798 72.2796 34.4274 68.5997 27.8058Z" fill="white"/>
<path d="M50.6194 44.7316C53.0905 36.0784 58.4754 28.9258 66.0681 24.1863C62.3885 19.1245 57.002 15.358 50.6151 13.5342C44.2282 11.7103 37.665 12.0644 31.8673 14.4197C35.8122 22.454 36.6081 31.3716 34.1371 40.0249C31.666 48.6781 26.281 55.8307 18.6883 60.5703C22.368 65.632 27.7545 69.3985 34.1414 71.2224C40.5283 73.0462 47.0915 72.6921 52.8892 70.3368C48.9442 62.3025 48.1483 53.3849 50.6194 44.7316Z" fill="white"/>
<path d="M16.1566 56.9506C22.9547 52.6527 27.8395 46.4714 30.0164 38.8483C32.1933 31.2252 31.3093 23.3965 27.8059 16.1568C21.1843 19.8367 15.8286 26.1064 13.5341 34.1415C11.2395 42.1767 12.4768 50.329 16.1566 56.9506Z" fill="white"/>
</g>
<defs>
<clipPath id="clip0_597_580">
<rect width="68.5649" height="68.5649" fill="white" transform="translate(18.8271) rotate(15.9375)"/>
</clipPath>
</defs>
</svg>
